<?xml version="1.0" encoding="utf-8"?>
<!-- Generator: Adobe Illustrator 26.4.1, SVG Export Plug-In . SVG Version: 6.00 Build 0)  -->
<svg version="1.1" id="Layer_1" xmlns="http://www.w3.org/2000/svg" xmlns:xlink="http://www.w3.org/1999/xlink" x="0px" y="0px"
	 viewBox="0 0 2918.25 448.5" style="enable-background:new 0 0 2918.25 448.5;" xml:space="preserve">
<style type="text/css">
	.st0{fill:#FFFFFF;}
	.st1{fill-rule:evenodd;clip-rule:evenodd;fill:#FFFFFF;}
</style>
<path class="st0" d="M499.59,27.23l-0.2-0.03c-1.69,0-3.42,0.05-5.15,0.14c-3.32,0.19-6.68,0.21-10.01-0.04
	c-1.7-0.13-3.39-0.19-5.02-0.19c-0.55,0-1.09,0.07-1.58,0.21c-0.4,0.12-1.08,0.5-1.08,1.69c0,1.38,0.66,2.04,1.19,2.34
	c0.66,0.38,1.45,0.66,2.37,0.83c0.85,0.16,1.73,0.3,2.62,0.42c0.78,0.12,1.4,0.38,1.87,0.81c0.46,0.41,0.77,1.24,0.94,2.44
	c0.18,1.3,0.28,2.82,0.28,4.51c0,1.69-0.03,3.46-0.09,5.28c-0.06,1.83-0.09,3.48-0.09,4.95v20.26c0,1.84-0.19,3.64-0.56,5.39
	c-0.55,3.14-1.33,5.82-2.32,7.95c-0.98,2.09-2.25,3.83-3.78,5.15c-1.53,1.33-3.43,2.29-5.64,2.86c-2.24,0.59-4.98,0.88-8.14,0.88
	c-2.64,0-5.08-0.28-7.24-0.84c-2.1-0.54-3.95-1.51-5.48-2.9c-1.54-1.39-2.8-3.32-3.73-5.75c-0.96-2.45-1.56-5.65-1.82-9.49
	c-0.12-1.92-0.2-3.88-0.23-5.84c-0.04-1.95-0.04-3.91-0.04-5.86V45.01c0-0.94,0.01-1.95,0.04-3.01c0.03-1.06,0.1-2.09,0.18-3.09
	c0.09-0.98,0.21-1.9,0.33-2.71c0.12-0.78,0.27-1.37,0.43-1.75c0.37-0.85,0.98-1.4,1.86-1.66c1.04-0.31,2.08-0.56,3.1-0.74
	c1.09-0.19,2.08-0.41,2.96-0.68c1.09-0.33,1.69-1.13,1.69-2.25c0-0.99-0.57-1.64-1.62-1.81c-0.8-0.13-1.45-0.2-1.99-0.2
	c-2.2,0-4.4,0.1-6.53,0.29c-3.97,0.35-8.31,0.39-12.4,0c-2-0.19-4.05-0.29-6.07-0.29c-1.57,0-2.46,0.87-2.46,2.38
	c0,0.63,0.26,1.16,0.76,1.51c0.41,0.3,0.9,0.51,1.45,0.63c0.51,0.09,1,0.16,1.5,0.2c0.49,0.03,0.89,0.04,1.22,0.04h1.05
	c1.09,0,1.92,0.29,2.47,0.86c0.6,0.64,1.03,1.39,1.28,2.27c0.26,0.91,0.42,1.93,0.45,3.03c0.03,1.13,0.05,2.13,0.05,3.01
	c0,5.33-0.06,10.69-0.19,15.9c-0.13,5.37-0.19,10.72-0.19,15.92v3.51c0,0.58,0.02,1.16,0.05,1.74c0.03,0.58,0.08,1.16,0.14,1.73
	c0.39,3.74,1.34,6.87,2.83,9.33c1.49,2.46,3.43,4.46,5.77,5.96c2.32,1.49,5,2.55,7.96,3.16c2.93,0.61,6.05,0.91,9.3,0.91
	c2.73,0,5.56-0.21,8.42-0.61c2.86-0.42,5.67-1.16,8.37-2.16c3.11-1.24,5.56-3.03,7.26-5.31c1.67-2.25,2.94-4.81,3.77-7.62
	c0.83-2.79,1.33-5.75,1.49-8.8c0.16-3.05,0.24-5.99,0.24-8.74c0-1.7-0.02-3.42-0.05-5.12c-0.03-1.71-0.05-3.41-0.05-5.1
	c0-1.9-0.01-4.11-0.05-6.64c-0.03-2.51-0.03-4.94,0-7.27c0.04-2.33,0.14-4.36,0.33-6.05c0.25-2.26,0.64-2.54,0.67-2.55
	c0.14-0.08,0.53-0.24,1.63-0.4c0.92-0.13,1.92-0.31,2.92-0.53c1.05-0.23,1.99-0.55,2.79-0.94c1.2-0.61,1.46-1.49,1.46-2.13
	C501.3,28.58,501,27.74,499.59,27.23"/>
<path class="st0" d="M591.95,27.2c-1.58,0-3.21,0.05-5,0.14c-3.62,0.2-7.48,0.18-10.96-0.05c-2.02-0.12-4.07-0.18-6.09-0.18
	c-0.6,0-1.16,0.13-1.68,0.38c-0.45,0.23-0.98,0.72-0.98,1.8c0,1.31,0.73,2.12,2.06,2.28c1.06,0.13,2.26,0.21,3.56,0.24
	c1.23,0.03,2.42,0.2,3.54,0.54c0.96,0.28,1.56,0.99,1.83,2.18c0.18,0.74,0.28,1.53,0.33,2.35c0.02,0.81,0.04,1.65,0.04,2.53
	c0,4.93,0.02,9.85,0.05,14.78c0.03,4.89,0.01,9.87-0.05,14.77v11.48c0.05,1-0.2,1.32-0.42,1.42c-5.15-6.15-9.67-11.5-13.56-16.08
	c-3.94-4.63-7.51-8.8-10.7-12.5c-3.19-3.69-6.1-7.07-8.71-10.13c-2.62-3.06-5.19-6.11-7.75-9.19c-1.19-1.12-2.09-2.09-2.69-2.87
	c-0.67-0.86-1.25-1.56-1.79-2.13c-0.58-0.61-1.21-1.09-1.88-1.4c-0.68-0.32-1.64-0.47-2.84-0.47c-1.08,0-2.13,0.03-3.12,0.09
	c-0.92,0.06-1.91,0.09-3.04,0.09c-1.46,0-2.78-0.02-4.04-0.09c-1.34-0.06-2.7-0.09-4.1-0.09c-0.53,0-1.16,0.17-1.91,0.53
	c-1.09,0.52-1.32,1.29-1.32,1.85c0,0.72,0.39,1.31,1.08,1.65c0.55,0.28,1.21,0.48,1.95,0.61c0.71,0.13,1.44,0.22,2.16,0.25
	c0.66,0.02,1.18,0.08,1.53,0.13c1.37,0.24,2.45,0.6,3.2,1.06c0.74,0.45,1.32,1,1.7,1.61c0.4,0.62,0.64,1.35,0.72,2.17
	c0.09,0.89,0.14,1.84,0.14,2.83c0,7.54-0.06,15.07-0.19,22.38l-0.38,22.41c0,0.87-0.03,1.78-0.09,2.71
	c-0.06,0.89-0.22,1.73-0.48,2.49c-0.26,0.73-0.66,1.36-1.18,1.85c-0.51,0.49-1.26,0.82-2.18,0.98c-0.5,0.07-1.11,0.11-1.85,0.14
	c-0.83,0.04-1.56,0.11-2.22,0.2c-0.75,0.1-1.4,0.29-1.95,0.58c-0.66,0.35-1.02,0.96-1.02,1.75c0,0.96,0.5,1.62,1.42,1.88
	c0.73,0.2,1.35,0.31,1.9,0.31c2.11,0,4.26-0.07,6.38-0.19c3.91-0.24,7.75-0.28,11.66,0c1.87,0.13,3.73,0.19,5.53,0.19
	c0.38,0,0.79-0.07,1.23-0.22c0.61-0.21,0.96-0.68,0.96-1.32c0-0.81-0.32-1.46-0.95-1.93c-0.54-0.4-1.1-0.66-1.69-0.81
	c-1.76-0.39-3.31-0.61-4.58-0.68c-1.13-0.05-2.05-0.3-2.76-0.72c-0.65-0.39-1.15-1.19-1.49-2.36c-0.36-1.27-0.54-3.34-0.54-6.18
	c0-4.73-0.03-9.12-0.1-13.03c-0.06-3.75-0.11-7.24-0.14-10.47c-0.03-3.21-0.08-6.32-0.14-9.33c-0.07-3.12-0.1-6.35-0.1-9.59
	c0-0.7,0.04-1.4,0.12-2.1c1.04,0.94,1.99,1.99,2.86,3.15c1.12,1.51,2.23,2.9,3.3,4.15c3.85,4.49,7.25,8.47,10.22,11.93l3.18,3.7
	c3.63,4.24,6.65,7.73,9.04,10.51c2.4,2.79,4.26,4.94,5.58,6.49c1.33,1.56,2.31,2.69,2.94,3.42c0.63,0.72,1.02,1.18,1.18,1.36
	c0.18,0.21,0.31,0.35,0.33,0.37c1.89,2.36,3.64,4.5,5.35,6.54c1.8,2.15,3.62,4.3,5.43,6.43c0.19,0.25,0.43,0.55,0.72,0.91
	c0.3,0.35,0.58,0.68,0.87,1.02c0.33,0.35,0.66,0.64,1,0.88c0.34,0.24,0.7,0.37,1.07,0.37c0.11,0,0.21-0.01,0.3-0.02
	c1.07-0.17,1.73-0.91,1.85-2.08c0.1-0.94,0.15-1.96,0.15-3.03c0-6.25,0.02-11.68,0.04-16.29c0.04-4.6,0.05-8.74,0.05-12.41v-19.6
	c0-0.62,0.02-1.61,0.05-2.92c0.03-1.32,0.09-2.68,0.19-4.1c0.09-1.37,0.26-2.7,0.51-3.95c0.3-1.46,0.63-2.12,0.84-2.41
	c0.35-0.44,0.96-0.74,1.81-0.87c1-0.16,1.99-0.28,2.99-0.38c1.04-0.09,1.98-0.26,2.8-0.49c1.04-0.28,1.61-1,1.61-2.03
	C594.62,28.57,594.27,27.2,591.95,27.2"/>
<path class="st0" d="M625.21,49.67c0.09-4.03,0.14-8.01,0.14-11.85c0-1.12,0.04-2.1,0.1-2.89c0.05-0.71,0.26-1.29,0.63-1.77
	c0.36-0.46,0.96-0.81,1.78-1.03c0.89-0.23,2.18-0.35,3.82-0.35c0.94,0,1.78-0.11,2.48-0.31c0.53-0.15,1.41-0.63,1.41-2.17
	c0-0.27-0.07-0.58-0.23-0.99c-0.17-0.41-0.33-0.67-0.52-0.85l-0.16-0.16h-8.47c-0.93,0-1.87,0.05-2.81,0.14
	c-0.98,0.1-1.86,0.14-2.69,0.14c-1.82,0-3.66-0.09-5.48-0.28c-1.83-0.19-3.72-0.29-5.6-0.29h-1.04c-0.55,0-1.14,0.05-1.75,0.15
	c-0.89,0.14-1.39,0.74-1.39,1.66c0,1.41,0.68,2,1.25,2.24c0.67,0.28,1.48,0.46,2.41,0.51c0.87,0.06,1.77,0.17,2.7,0.32
	c0.84,0.14,1.54,0.51,2.09,1.06c0.22,0.29,0.53,0.94,0.75,2.39c0.19,1.26,0.28,2.37,0.28,3.42v1.8c0,1.58-0.02,3.15-0.05,4.72
	c-0.03,1.59-0.05,3.2-0.05,4.84l-0.09,33.14v1.99c0,1.16-0.08,2.39-0.24,3.67c-0.13,1.13-0.47,1.91-1,2.34
	c-0.56,0.51-1.25,0.85-2.11,1.05c-0.94,0.22-1.83,0.41-2.68,0.56c-0.86,0.16-1.63,0.36-2.31,0.6c-1.16,0.41-1.33,1.26-1.33,1.72
	c0,0.99,0.45,1.71,1.28,2.02c0.65,0.23,1.35,0.37,2.05,0.37h1.32c1.93,0,3.68-0.12,5.2-0.34c2.8-0.41,6.61-0.43,10.27-0.04
	c2.75,0.29,5.43,0.43,8.21,0.14c1.2-0.12,1.9-0.9,1.9-2.14c0-0.49-0.2-1.33-1.48-1.69c-0.73-0.19-1.55-0.37-2.47-0.52
	c-0.91-0.16-1.85-0.33-2.83-0.52c-0.87-0.17-1.55-0.47-2.04-0.9c-0.64-0.6-1.05-1.47-1.19-2.58c-0.15-1.23-0.22-2.35-0.22-3.33
	V61.49C625.07,57.52,625.11,53.53,625.21,49.67"/>
<path class="st0" d="M717.43,27.2c-1.43,0-2.89,0.08-4.32,0.24c-3.23,0.38-6.83,0.28-10.29-0.1c-2.1-0.22-4.2-0.33-6.22-0.33
	c-0.66,0-1.23,0.22-1.72,0.67c-0.5,0.46-0.75,1.03-0.75,1.7c0,1.22,0.7,2.04,1.96,2.33c1.05,0.23,2.21,0.39,3.42,0.52
	c1.18,0.12,2.27,0.37,3.23,0.73c0.48,0.18,1.13,0.59,1.13,2.01c0,0.18-0.09,0.86-0.97,3.57c-0.66,2.04-1.51,4.53-2.55,7.42
	c-1.04,2.9-2.18,6.04-3.4,9.42c-1.23,3.37-2.43,6.58-3.59,9.61c-1.17,3.03-2.21,5.72-3.13,8.09c-0.98,2.55-1.58,4.05-1.92,4.84
	l-0.34,0.72c-0.15,0.33-0.32,0.65-0.52,0.96c-0.18,0.27-0.36,0.5-0.58,0.71c-0.19-0.22-0.68-0.96-1.77-3.42
	c-0.93-2.11-2.05-4.75-3.3-7.84c-1.26-3.08-2.6-6.45-4.02-10.08c-1.41-3.63-2.75-7.08-4.02-10.37c-1.26-3.27-2.36-6.19-3.31-8.75
	c-0.95-2.55-1.58-4.29-1.9-5.24c-0.06-0.18-0.12-0.38-0.18-0.59c-0.05-0.17-0.07-0.31-0.07-0.45c0-0.76,0.29-1.19,0.92-1.39
	c0.83-0.27,1.79-0.43,2.84-0.49c1.13-0.06,2.15-0.16,3.03-0.28c1.59-0.23,1.82-1.24,1.82-1.81c0-0.73-0.3-1.37-0.87-1.86
	c-0.55-0.47-1.18-0.7-1.89-0.7c-2.27,0-4.5,0.09-6.63,0.29c-3.6,0.31-7.37,0.46-11,0c-1.5-0.19-3.05-0.29-4.62-0.29h-1.04
	c-0.7,0-1.39,0.11-2.12,0.36c-1.16,0.38-1.39,1.16-1.39,1.73c0,1.07,0.55,1.82,1.55,2.11c0.78,0.23,1.66,0.43,2.71,0.63
	c1,0.18,2,0.46,2.99,0.83c0.9,0.33,1.58,1,2.09,2.08c3.19,6.63,6.11,13.4,8.7,20.17c2.59,6.78,5.21,13.59,7.86,20.41
	c1.45,3.6,2.94,7.26,4.46,10.98c1.5,3.73,2.99,7.39,4.44,10.98c0.13,0.35,0.34,0.71,0.64,1.13c0.36,0.49,0.88,0.75,1.5,0.75
	c0.71,0,1.19-0.18,1.47-0.57c0.19-0.27,0.36-0.61,0.49-1.03c2.3-5.65,4.6-11.42,6.83-17.14c2.15-5.55,4.45-11.32,6.82-17.13
	c1.42-3.49,2.84-6.87,4.21-10.07c1.43-3.35,2.82-6.75,4.12-10.08c0.19-0.45,0.45-1.13,0.81-2.07c0.34-0.9,0.73-1.82,1.13-2.76
	c0.41-0.94,0.79-1.83,1.14-2.66c0.34-0.78,0.6-1.33,0.75-1.6c0.5-0.72,1.08-1.19,1.79-1.43c0.78-0.28,1.55-0.47,2.28-0.6
	c0.8-0.14,1.5-0.34,2.09-0.61c0.52-0.25,1.14-0.81,1.14-2.14c0-0.5-0.14-0.96-0.44-1.38C718.56,27.45,718.05,27.2,717.43,27.2"/>
<path class="st0" d="M786.98,80.32c-0.72,0-1.42,0.54-2.14,1.64c-0.61,0.93-1.26,2.01-1.91,3.21c-0.65,1.16-1.36,2.36-2.12,3.56
	c-0.71,1.12-1.48,1.95-2.28,2.47c-0.46,0.29-1.05,0.51-1.77,0.68c-0.76,0.18-1.59,0.33-2.48,0.42c-0.91,0.09-1.86,0.17-2.87,0.23
	c-1,0.07-1.9,0.1-2.71,0.1h-2.93c-0.57,0-1.51-0.02-2.84-0.05c-1.32-0.03-2.68-0.08-4.1-0.14c-1.36-0.06-2.7-0.16-3.98-0.32
	c-1.46-0.18-2.15-0.41-2.44-0.55c-0.6-0.32-1.03-0.78-1.32-1.4c-0.33-0.68-0.57-1.42-0.72-2.23c-0.15-0.82-0.24-1.65-0.27-2.47
	c-0.03-0.84-0.05-1.6-0.05-2.3V68.21c0-0.26-0.01-0.71-0.05-1.36c-0.03-0.59-0.01-1.2,0.04-1.81c0.06-0.6,0.15-1.15,0.28-1.62
	c0.09-0.39,0.24-0.41,0.33-0.43c0.23-0.06,0.61-0.12,1.12-0.18c0.52-0.06,1.06-0.11,1.62-0.14l0.18,0c0.51-0.03,0.99-0.06,1.43-0.09
	c0.49-0.03,0.89-0.05,1.2-0.05c1.2,0,2.58-0.01,4.13-0.05h0.57c1.31,0,2.58,0.09,3.78,0.28c1.34,0.21,2.51,0.61,3.49,1.17
	c0.9,0.52,1.44,1.27,1.66,2.31l0.08,0.18c0.15,0.25,0.28,0.72,0.4,1.36c0.12,0.74,0.26,1.47,0.43,2.21
	c0.16,0.77,0.38,1.43,0.65,2.05c0.44,0.99,1.1,1.2,1.57,1.2c0.63,0,1.12-0.22,1.45-0.65c0.29-0.37,0.46-0.83,0.54-1.36
	c0.07-0.49,0.09-0.99,0.05-1.5c-0.03-0.46-0.04-0.84-0.04-1.14c0-1.33-0.03-2.65-0.09-3.95c-0.07-1.34-0.11-2.65-0.11-3.9
	c0-1.31,0.04-2.63,0.11-3.94c0.06-1.34,0.09-2.67,0.09-4.01c0-0.71-0.03-1.39-0.1-2.05c-0.09-0.93-0.72-1.46-1.71-1.46
	c-0.89,0-1.35,0.43-1.58,0.79c-0.24,0.37-0.46,0.74-0.65,1.14l-0.06,0.22c-0.11,1.71-0.56,3.18-1.32,4.35
	c-0.74,1.13-1.94,1.83-3.67,2.11c-1.66,0.25-3.38,0.39-5.13,0.43c-1.76,0.02-3.5,0.05-5.2,0.05c-0.39,0-0.87,0.02-1.44,0.05
	c-0.55,0.03-1.13,0.03-1.7,0c-0.59-0.03-1.1-0.1-1.55-0.23c-0.33-0.08-0.58-0.2-0.75-0.37c-0.1-0.44-0.14-1.02-0.14-1.72v-2.18
	c0-2.14-0.01-4.3-0.04-6.45c-0.04-2.14-0.05-4.28-0.05-6.43c0-1.06,0.03-2.18,0.09-3.33c0.06-1.1,0.26-2.12,0.59-3
	c0.31-0.85,0.79-1.53,1.47-2.07c0.65-0.52,1.65-0.78,2.95-0.78h4.17c1.26,0,2.6,0.02,4.01,0.04c1.4,0.04,2.77,0.12,4.08,0.24
	c1.36,0.13,2.52,0.31,3.54,0.51c1,0.21,1.77,0.46,2.29,0.74c0.78,0.45,1.37,1.12,1.79,2.05c0.47,1.03,0.9,2.08,1.26,3.13
	c0.38,1.09,0.77,2.05,1.16,2.86c0.61,1.23,1.43,1.5,2.09,1.5h0.02c1.2-0.14,1.43-1.73,1.5-2.25c0.15-1.12,0.24-2.34,0.24-3.62
	c0-1.13,0.02-2.08,0.05-2.87c0.03-0.8,0.04-1.49,0.04-2.06c0-1.11-0.13-2.33-0.39-3.65c-0.13-0.51-0.53-1.16-1.69-1.38
	c-0.72-0.13-1.46-0.19-2.19-0.19h-1.04c-4.49,0-8.81,0.04-12.84,0.14c-4.13,0.09-8.44,0.14-12.82,0.14c-2.22,0-4.41-0.05-6.5-0.14
	c-2.07-0.1-4.25-0.14-6.46-0.14c-0.57,0-1.26-0.02-2.07-0.05c-0.84-0.03-1.63,0-2.42,0.1c-0.79,0.11-1.45,0.28-2.03,0.51
	c-0.76,0.31-1.17,0.93-1.17,1.72c0,0.64,0.26,1.75,1.96,2.04c0.98,0.15,2.09,0.31,3.33,0.47c1.16,0.15,2.25,0.48,3.22,0.98
	c0.85,0.44,1.33,1.36,1.44,2.87c0.05,0.28,0.08,0.52,0.08,0.74v2.56c0,5.11,0.04,10.2,0.09,15.25c0.06,4.89,0.09,10.01,0.09,15.24
	c0,1.58,0.03,3.43,0.1,5.56c0.05,2.11,0.09,4.2,0.09,6.28c0,2.01-0.09,3.86-0.28,5.52c-0.17,1.61-0.5,2.77-0.94,3.43
	c-0.51,0.72-1.24,1.27-2.2,1.63c-1,0.39-2.07,0.72-3.19,0.98c-1.07,0.25-2.04,0.5-2.89,0.76c-1.31,0.42-1.59,1.15-1.59,1.69
	c0,1.69,0.98,2.04,1.57,2.1c0.71,0.06,1.43,0.1,2.14,0.1c0.96,0,1.91-0.03,2.83-0.1c0.9-0.06,1.79-0.09,2.66-0.09h44.69
	c1.28,0,2.23-0.47,2.85-1.39l0.08-0.2c0.45-2.02,0.81-3.64,1.09-4.87l0.81-3.51c0.25-1.09,0.4-1.73,0.42-1.81
	c0.08-0.15,0.16-0.4,0.34-1.16c0.12-0.53,0.17-0.78,0.19-0.92c0.27-0.58,0.36-1.18,0.24-1.78
	C788.74,81.08,788.38,80.32,786.98,80.32"/>
<path class="st0" d="M866.67,97.7c-0.68-0.14-1.35-0.37-2.13-0.71c-2.54-0.54-4.81-1.7-6.75-3.42c-1.98-1.75-3.79-3.83-5.39-6.19
	c-1.64-2.38-3.11-4.91-4.41-7.55c-1.33-2.68-2.57-5.21-3.75-7.61c-1.18-2.44-2.37-4.55-3.54-6.29c-0.92-1.33-1.86-2.34-2.85-3
	c1.31-0.66,2.65-1.42,4.01-2.29c1.69-1.09,3.26-2.36,4.65-3.78c1.4-1.42,2.54-3.05,3.42-4.83c0.89-1.82,1.34-3.8,1.34-5.89
	c0-3.81-0.73-6.99-2.16-9.48c-1.43-2.47-3.25-4.46-5.38-5.92c-2.13-1.45-4.47-2.47-6.93-3.02c-2.43-0.54-4.74-0.83-6.85-0.83
	c-2.45,0-4.89,0.05-7.26,0.14c-2.36,0.09-4.79,0.14-7.23,0.14h-8.24c-0.68,0-1.37-0.03-2.08-0.09c-1.53-0.12-3-0.16-4.34,0.15
	c-0.54,0.12-1.45,0.57-1.45,2.13c0,0.8,0.4,1.4,1.13,1.68c0.56,0.21,1.27,0.34,2.1,0.41c0.79,0.06,1.62,0.12,2.51,0.19
	c0.83,0.05,1.62,0.22,2.35,0.48c0.68,0.25,1.23,0.66,1.66,1.26c0.44,0.6,0.65,1.46,0.65,2.59c0,5.28-0.05,10.65-0.14,15.99
	c-0.09,5.38-0.14,10.76-0.14,16.01v19.5c0,1.2-0.22,2.14-0.66,2.8c-0.46,0.68-1.05,1.22-1.75,1.61c-0.73,0.41-1.52,0.69-2.33,0.83
	c-0.88,0.17-1.71,0.31-2.49,0.43c-0.8,0.13-1.48,0.28-2.02,0.45c-1.02,0.32-1.17,1.05-1.17,1.44c0,1.13,0.2,1.77,0.65,2.05
	c0.36,0.23,0.95,0.33,1.92,0.33c1.95,0,3.93-0.1,5.88-0.29c4.04-0.4,8.29-0.35,12.43,0.05c2.23,0.22,4.54,0.33,6.88,0.33
	c1.35,0,2.33-0.1,3.01-0.31c0.51-0.15,1.35-0.64,1.35-2.17c0-0.75-0.39-1.3-1.08-1.49c-0.48-0.15-1-0.22-1.58-0.22
	c-0.38,0-0.5-0.04-0.5-0.04l-0.14-0.05c-1.27-0.25-2.43-0.44-3.45-0.57c-0.94-0.12-1.74-0.35-2.4-0.7
	c-0.62-0.32-1.09-0.83-1.45-1.54c-0.37-0.74-0.55-1.9-0.55-3.43V67.55c0-1.85,0.22-2.51,0.35-2.74c0.08-0.14,0.42-0.47,1.82-0.47
	c2.14,0,3.95,0.53,5.38,1.59c1.49,1.09,2.81,2.5,3.93,4.17c1.14,1.7,2.18,3.61,3.07,5.73c0.91,2.14,1.93,4.25,2.98,6.23
	c1.92,4.98,4.75,9.26,8.43,12.71c3.69,3.47,8.32,5.71,13.81,6.68c0.44,0.07,0.98,0.12,1.63,0.19c0.64,0.06,1.3,0.11,1.95,0.11
	c1.65,0,2.83-0.14,3.6-0.42l0.22-0.14c0.7-0.7,1.02-1.29,1.02-1.83C868.21,98.87,868.01,97.99,866.67,97.7 M839.13,53.05
	c-0.87,1.83-2.08,3.28-3.59,4.32c-1.54,1.06-3.39,1.79-5.51,2.18c-2.16,0.4-4.52,0.6-7,0.6c-1.07,0-1.85-0.08-2.31-0.25
	c-0.49-0.17-0.63-0.42-0.69-0.6c-0.14-0.37-0.18-0.85-0.15-1.43c0.03-0.67,0.05-1.49,0.05-2.44c0-2.52,0.02-5.36,0.09-8.51
	c0.06-3.16,0.09-6.01,0.09-8.54v-3.22c0-1.36,0.3-2.4,0.9-3.07c0.39-0.45,1.39-0.99,3.92-0.99c2.27,0,4.37,0.33,6.26,0.96
	c1.85,0.64,3.49,1.58,4.86,2.81c1.36,1.25,2.44,2.79,3.22,4.59c0.78,1.82,1.18,3.98,1.18,6.4C840.45,48.79,840,51.2,839.13,53.05"/>
<path class="st0" d="M911.43,60.71c-2.15-1.38-4.67-2.77-7.49-4.1c-2.78-1.31-5.46-2.76-7.95-4.28c-2.46-1.5-4.57-3.25-6.26-5.18
	c-1.63-1.88-2.46-4.09-2.46-6.58c0-1.62,0.3-3.1,0.9-4.41c0.6-1.31,1.42-2.42,2.45-3.31c1.04-0.89,2.28-1.59,3.69-2.07
	c1.41-0.48,2.92-0.72,4.5-0.72c1.89,0,3.79,0.63,5.64,1.89c1.85,1.24,3.27,3.04,4.28,5.4c0.34,0.56,0.6,1.25,0.79,2.05
	c0.19,0.85,0.38,1.68,0.57,2.47c0.19,0.8,0.43,1.52,0.7,2.14c0.59,1.34,1.42,1.16,1.99,1.26c0.66,0.19,1.44,0.2,1.98-0.33
	c0.28-0.27,0.47-0.71,0.65-1.51c0.25-3.3,0.35-6.62,0.28-9.88c0-0.68,0.04-1.49,0.13-2.4c0.09-0.96,0.15-1.9,0.15-2.8
	c0-0.91-0.07-1.72-0.2-2.38c-0.25-1.23-1-1.42-1.42-1.42c-1.12,0-1.99,0.35-2.58,1.06c-0.51,0.61-0.93,1.26-1.25,1.9
	c-0.29,0.58-0.58,1.02-0.89,1.32c-0.1,0.1-0.24,0.2-0.85-0.13c-1.16-0.71-2.59-1.42-4.25-2.12c-1.7-0.72-3.28-1.09-4.67-1.09
	c-2.89,0-5.68,0.44-8.28,1.3c-2.61,0.87-4.93,2.15-6.87,3.81c-1.95,1.66-3.51,3.73-4.65,6.16c-1.13,2.44-1.71,5.25-1.71,8.34
	c0,3.51,0.85,6.51,2.52,8.9c1.65,2.35,3.71,4.44,6.15,6.2c2.42,1.75,5.07,3.34,7.9,4.73c2.78,1.39,5.39,2.87,7.74,4.42
	c2.33,1.54,4.31,3.31,5.88,5.27c1.52,1.9,2.29,4.31,2.29,7.12c0,1.93-0.31,3.67-0.95,5.17c-0.64,1.51-1.54,2.81-2.67,3.88
	c-1.13,1.08-2.48,1.92-4.01,2.48c-1.53,0.57-3.23,0.86-5.05,0.86c-2.48,0-4.9-0.65-7.2-1.96c-2.28-1.29-3.99-3.13-5.07-5.48
	c-0.29-0.6-0.55-1.32-0.76-2.15c-0.22-0.88-0.42-1.72-0.61-2.51c-0.19-0.8-0.43-1.52-0.7-2.1c-0.44-0.94-1.1-1.14-1.57-1.14
	c-0.15,0-0.3-0.02-0.46-0.08c-0.62-0.17-1.38-0.18-1.95,0.31c-0.34,0.3-0.54,0.79-0.62,1.53c-0.12,1.62-0.21,3.13-0.24,4.47
	c-0.04,1.33-0.04,2.83-0.04,4.47c0,0.67-0.05,1.55-0.14,2.7c-0.1,1.2-0.15,2.29-0.15,3.36c0,1.1,0.07,2.07,0.2,2.88
	c0.23,1.46,0.99,1.68,1.42,1.68c1.11,0,1.92-0.25,2.48-0.77c0.48-0.44,0.9-0.96,1.25-1.55c0.29-0.5,0.6-0.94,0.93-1.34
	c0.49-0.57,1.85-0.53,3.23,0.03c0.79,0.32,1.65,0.65,2.57,0.99c0.9,0.34,1.89,0.68,2.97,1.02c1.1,0.33,2.29,0.5,3.54,0.5
	c3.31-0.07,6.41-0.57,9.21-1.5c2.81-0.94,5.27-2.33,7.31-4.15c2.04-1.81,3.65-4.09,4.78-6.78c1.13-2.69,1.71-5.84,1.71-9.37
	c-0.06-3.3-0.87-6.44-2.39-9.35C916.31,64.93,914.16,62.54,911.43,60.71"/>
<path class="st0" d="M954.22,49.67c0.09-3.88,0.14-7.87,0.14-11.85c0-1.12,0.04-2.1,0.1-2.89c0.05-0.71,0.26-1.29,0.63-1.77
	c0.36-0.46,0.96-0.81,1.78-1.03c0.89-0.23,2.18-0.35,3.82-0.35c0.94,0,1.78-0.11,2.48-0.31c0.54-0.15,1.42-0.63,1.42-2.17
	c0-0.27-0.07-0.58-0.23-0.99c-0.17-0.41-0.33-0.67-0.51-0.85l-0.16-0.16h-8.47c-0.92,0-1.87,0.05-2.81,0.14
	c-0.98,0.1-1.87,0.14-2.69,0.14c-1.81,0-3.66-0.09-5.47-0.28c-1.83-0.19-3.71-0.29-5.6-0.29h-1.05c-0.54,0-1.14,0.05-1.75,0.15
	c-0.88,0.14-1.39,0.74-1.39,1.66c0,1.41,0.68,2,1.25,2.24c0.67,0.28,1.48,0.46,2.41,0.51c0.87,0.06,1.78,0.17,2.7,0.32
	c0.82,0.14,1.55,0.52,2.09,1.06c0.22,0.29,0.53,0.94,0.75,2.39c0.19,1.26,0.28,2.37,0.28,3.42v1.8c0,1.58-0.02,3.15-0.05,4.72
	c-0.04,1.58-0.05,3.2-0.05,4.84l-0.09,33.14v1.99c0,1.16-0.08,2.39-0.24,3.67c-0.14,1.13-0.47,1.91-1,2.34
	c-0.55,0.5-1.26,0.85-2.11,1.05c-0.94,0.22-1.83,0.41-2.67,0.56c-0.85,0.16-1.62,0.35-2.31,0.6c-1.16,0.41-1.33,1.26-1.33,1.72
	c0,0.99,0.45,1.71,1.28,2.02c0.65,0.23,1.35,0.37,2.05,0.37h1.33c1.93,0,3.68-0.12,5.2-0.34c2.79-0.41,6.61-0.43,10.27-0.04
	c2.75,0.29,5.43,0.43,8.21,0.14c1.2-0.12,1.9-0.9,1.9-2.14c0-0.49-0.19-1.33-1.47-1.69c-0.72-0.19-1.55-0.37-2.47-0.52
	c-0.91-0.16-1.85-0.33-2.82-0.52c-0.88-0.17-1.57-0.47-2.05-0.9c-0.64-0.6-1.04-1.46-1.18-2.58c-0.15-1.22-0.23-2.34-0.23-3.33
	V61.49C954.08,57.44,954.13,53.46,954.22,49.67"/>
<path class="st0" d="M1038.58,23.6c-0.37,0-0.89,0.15-1.35,0.89c-0.24,0.4-0.54,0.85-0.92,1.34c-0.34,0.45-0.75,0.9-1.24,1.33
	c-0.41,0.37-0.96,0.6-1.59,0.71c-0.92,0.12-1.88,0.2-2.82,0.23c-4.12,0.12-7.96,0.06-11.65,0.14c-6.24,0.15-13.57,0.12-20.37-0.05
	c-3.82-0.09-7.73-0.23-11.62-0.43c-0.83-0.05-1.48-0.24-1.93-0.56c-0.48-0.34-0.87-0.7-1.15-1.06c-0.31-0.4-0.57-0.75-0.78-1.07
	c-0.42-0.6-0.93-0.71-1.27-0.71c-0.98,0-1.75,0.25-2.3,0.77c-0.51,0.48-0.9,1.08-1.15,1.79c-0.24,0.67-0.39,1.44-0.46,2.27
	l-0.02,0.33c-0.06,0.66-0.11,1.29-0.16,1.89c-0.31,3.24-0.72,5.78-1.21,7.52c-0.52,1.83-0.78,3.33-0.78,4.46
	c0,0.88,0.22,1.5,0.68,1.87c0.43,0.34,1.01,0.51,1.79,0.51c0.51,0,0.96-0.44,1.68-1.61c0.57-0.94,1.13-1.95,1.67-3.02
	c0.58-1.1,1.1-2.17,1.61-3.18c0.6-1.19,0.94-1.66,1.12-1.83c1.18-1.13,2.43-1.89,3.7-2.28c1.3-0.4,2.66-0.59,4.04-0.59h5.88
	c1.5,0,2.9,0.11,4.16,0.32c1.18,0.2,1.66,0.51,1.71,0.72c0.06,0.27,0.1,0.81,0.13,1.65c0.03,0.85,0.05,1.42,0.05,1.74v45.82
	c0,1.74-0.1,3.2-0.27,4.36c-0.18,1.1-0.53,2.02-1.04,2.74c-0.5,0.69-1.26,1.24-2.26,1.65c-1.03,0.41-2.46,0.72-4.33,0.91
	c-0.13,0.04-0.44,0.08-1.09,0.08c-0.7,0-1.37,0.12-2.01,0.37c-0.56,0.22-1.22,0.75-1.22,2.01c0,1.4,0.91,1.66,1.32,1.71
	c0.55,0.07,1.09,0.1,1.62,0.1c2.28,0,4.57-0.08,6.81-0.24c4.52-0.32,9.7-0.29,14.23,0.01c2.49,0.16,5.03,0.24,7.56,0.24
	c0.78,0,1.46-0.04,1.97-0.1c0.77-0.11,1.16-0.84,1.16-2.18c0-0.62-0.28-1.68-2.17-1.91l-3.75-0.42c-1.32-0.15-2.6-0.51-3.78-1.09
	c-1.09-0.51-1.76-1.54-2.05-3.12c-0.18-0.98-0.29-1.97-0.32-2.94c-0.03-1-0.05-2.01-0.05-3c0.13-5.59,0.11-11.22-0.05-16.7
	c-0.15-5.52-0.16-11.11-0.04-16.63l0.19-11.56c0-1.42,0.07-2.47,0.23-3.16c0.17-0.8,0.38-1.1,0.5-1.22
	c0.14-0.15,0.29-0.21,0.52-0.21h0.01c0.83,0.08,1.74,0.07,3.21,0c1.75-0.08,4.13-0.06,6.51,0.1c1.41,0.09,2.74,0.25,3.96,0.46
	c1.21,0.21,2.25,0.55,3.1,0.99c0.79,0.4,1.32,0.92,1.58,1.54c0.34,0.87,0.49,1.79,0.43,2.78c-0.06,1.07-0.15,2.05-0.24,2.96
	c-0.1,0.99-0.08,1.79,0.07,2.45c0.1,0.5,0.49,1.35,1.88,1.35c1.23,0,2.1-0.85,2.6-2.5c0.41-1.41,0.74-3.1,0.97-5.02
	c0.21-1.88,0.4-3.85,0.56-5.85c0.14-1.9,0.44-3.46,0.86-4.63c0.31-0.82,0.29-1.71-0.04-2.65
	C1040.92,24.49,1040.26,23.6,1038.58,23.6"/>
<path class="st0" d="M1124.42,27.63c-0.81-0.35-1.7-0.52-2.65-0.52c-1.64,0-3.3,0.11-4.96,0.34c-2.92,0.4-6.11,0.42-9.07,0.05
	c-1.45-0.2-2.95-0.29-4.43-0.29c-0.69,0-1.23,0.05-1.62,0.16c-0.64,0.17-0.96,0.79-0.96,1.83c0,1.17,0.65,1.93,1.81,2.14
	c0.91,0.16,1.91,0.28,2.95,0.33c1.03,0.07,1.94,0.23,2.75,0.5c0.43,0.13,0.93,0.43,0.93,1.44c-0.01,0.06-0.11,0.42-1.05,1.9
	c-0.75,1.17-1.69,2.6-2.88,4.34c-1.17,1.7-2.44,3.55-3.83,5.53c-1.45,2.08-2.76,3.9-4.02,5.57c-1.29,1.74-2.42,3.26-3.4,4.54
	c-0.96,1.27-1.63,2.09-1.99,2.45c-0.11,0.12-0.27,0.27-0.48,0.44c-0.09,0.08-0.17,0.14-0.24,0.18c-0.1-0.06-0.18-0.13-0.24-0.21
	c-0.16-0.23-0.34-0.47-0.54-0.74c-1.64-2.02-3.23-4.13-4.71-6.26c-1.52-2.18-3.03-4.37-4.56-6.6c-0.57-0.76-1.28-1.69-2.14-2.8
	c-0.8-1.05-1.62-2.19-2.43-3.38c-0.81-1.18-1.48-2.27-2.06-3.32c-0.54-0.98-0.82-1.77-0.82-2.37c0-0.6,0.23-0.88,0.84-0.99
	c0.88-0.15,1.82-0.24,2.8-0.27c1.06-0.03,2.06-0.13,2.98-0.29c1.16-0.21,1.8-1,1.8-2.23c0-0.52-0.33-1.01-0.97-1.43
	c-0.58-0.39-1.07-0.57-1.5-0.57c-2.43,0-4.92,0.11-7.39,0.33c-4.06,0.37-8.36,0.54-12.32-0.04c-1.73-0.26-3.51-0.39-5.29-0.39
	c-0.51,0-0.99,0.04-1.51,0.1c-0.34,0.05-1.15,0.31-1.15,1.62c0,0.95,0.51,1.63,1.44,1.92c0.67,0.22,1.5,0.44,2.56,0.68
	c0.92,0.21,1.9,0.52,2.98,0.97c0.96,0.4,1.77,1.06,2.4,1.97c3.42,4.94,6.85,9.8,10.19,14.45c3.44,4.8,6.87,9.65,10.18,14.44
	c0.69,0.99,1.06,2.07,1.12,3.29c0.06,1.38,0.09,3.02,0.09,4.9v8.33c0,1.13-0.02,2.33-0.04,3.58c-0.04,1.33-0.1,2.48-0.2,3.52
	c-0.09,1.06-0.22,2.02-0.4,2.85c-0.18,0.77-0.39,1.31-0.63,1.58c-0.6,0.67-1.43,1.08-2.46,1.24c-1.16,0.18-2.29,0.36-3.39,0.52
	c-1.16,0.16-2.13,0.44-2.88,0.82c-0.54,0.27-1.37,0.97-0.88,2.56c0.03,0.52,0.33,0.9,0.82,1.03c0.31,0.07,0.57,0.11,0.79,0.11
	c2.28,0,4.58-0.12,6.83-0.34c4.56-0.45,9.41-0.41,14.1,0c2.49,0.22,5.01,0.34,7.48,0.34c1.14,0,1.67-0.53,1.93-0.96
	c0.3-0.52,0.45-1.13,0.45-1.8l-0.04-0.22c-0.33-0.8-0.92-1.33-1.73-1.53c-0.65-0.15-1.41-0.26-2.35-0.3
	c-0.84-0.04-1.71-0.08-2.63-0.15c-0.84-0.05-1.61-0.26-2.29-0.6c-0.65-0.33-1.18-0.89-1.64-1.71c-0.46-0.83-0.69-2.05-0.69-3.65
	V67.74c0-1.29,0.36-2.67,1.05-4.11c0.69-1.45,1.58-2.93,2.68-4.4c1.09-1.47,2.26-2.92,3.47-4.32c1.33-1.54,2.44-2.85,3.39-4.05
	c2.2-2.84,4.4-5.68,6.58-8.52c2.1-2.74,4.37-5.54,6.75-8.31c0.63-0.74,1.32-1.26,2.04-1.53c0.77-0.3,1.53-0.51,2.24-0.64
	c0.78-0.12,1.49-0.27,2.15-0.44c0.78-0.19,1.36-0.63,1.7-1.31c0.26-0.58,0.32-1.1,0.15-1.55
	C1125.23,28.15,1124.9,27.84,1124.42,27.63"/>
<path class="st0" d="M1198.44,52.32c-2.47-2.29-5.36-4.1-8.61-5.36c-3.26-1.27-6.75-1.92-10.4-1.92c-3.79,0-7.33,0.7-10.52,2.06
	c-3.19,1.36-6,3.28-8.34,5.68c-2.34,2.41-4.18,5.29-5.48,8.59c-1.28,3.28-1.94,6.88-1.94,10.71c0,3.82,0.65,7.39,1.91,10.61
	c1.28,3.21,3.08,6.04,5.34,8.4c2.27,2.36,5.03,4.23,8.2,5.55c3.18,1.32,6.68,1.99,10.42,1.99c3.79,0,7.4-0.74,10.73-2.2
	c3.32-1.45,6.26-3.44,8.74-5.92c2.47-2.47,4.43-5.4,5.84-8.7c1.42-3.31,2.13-6.85,2.13-10.55c0-3.88-0.72-7.47-2.16-10.67
	C1202.86,57.4,1200.89,54.62,1198.44,52.32 M1197.46,76.36c-0.04,2.8-0.51,5.47-1.39,7.96c-0.88,2.47-2.27,4.64-4.16,6.46
	c-1.85,1.8-4.44,2.99-7.67,3.57c-1.27,0.24-2.49,0.35-3.63,0.35c-1.86,0-3.59-0.32-5.12-0.94c-2.5-1-4.65-2.51-6.4-4.48
	c-1.77-1.99-3.21-4.32-4.3-6.92c-1.1-2.64-1.87-5.31-2.31-7.93c-0.49-2.54-0.73-5.22-0.71-7.97c0.03-2.72,0.47-5.3,1.34-7.68
	c0.84-2.35,2.22-4.44,4.1-6.18c1.87-1.73,4.47-2.92,7.75-3.53c1.24-0.23,2.44-0.34,3.57-0.34c1.68,0,3.28,0.26,4.73,0.76
	c2.45,0.86,4.62,2.21,6.43,4.02c1.83,1.83,3.37,4.07,4.55,6.62c1.21,2.58,2.09,5.33,2.62,8.18
	C1197.31,70.84,1197.51,73.55,1197.46,76.36"/>
<path class="st0" d="M1246.79,46.34c-0.07,0-0.25-0.01-0.5-0.03c-0.29-0.02-0.62-0.04-1-0.04h-1.5c-2.09,0-4.16,0.01-6.21,0.04
	c-2.05,0.02-4.11,0.03-6.19,0.03h-10.57c-0.37,0-1.03-0.01-2-0.03c-0.99-0.02-2.02-0.04-3.12-0.04c-1.19,0-2.11,0.01-2.78,0.04
	c-0.71,0.02-1.26,0.1-1.67,0.23c-0.5,0.17-0.81,0.41-0.98,0.74c-0.13,0.27-0.19,0.57-0.19,0.94c0,0.67,0.35,1.15,0.95,1.33
	c0.4,0.14,0.88,0.21,1.47,0.24c0.52,0.02,1.09,0.05,1.69,0.1c0.54,0.05,1.04,0.18,1.5,0.39c0.42,0.2,0.79,0.55,1.09,1.02
	c0.3,0.47,0.45,1.21,0.45,2.18c0,4.36,0.04,8.74,0.11,13.44c0.06,4.23,0.1,8.62,0.1,13.41v2.53c0,0.81-0.01,1.71-0.03,2.68
	c-0.03,0.97-0.07,1.92-0.11,2.85c-0.04,0.91-0.11,1.73-0.2,2.44c-0.1,0.87-0.22,1.19-0.3,1.36c-0.29,0.73-0.81,1.14-1.7,1.3
	c-0.22,0.07-0.59,0.15-1.14,0.21c-0.57,0.07-1.14,0.15-1.7,0.24c-0.61,0.11-1.15,0.27-1.58,0.5c-0.82,0.4-0.95,1.03-0.95,1.37
	c0,0.79,0.48,1.33,1.26,1.43c0.53,0.07,0.99,0.1,1.37,0.1c1.3,0,2.61-0.08,3.86-0.24c2.74-0.35,5.87-0.27,8.77,0
	c1.68,0.16,3.39,0.24,5.1,0.24h0.68c0.52,0,1.04-0.09,1.53-0.27c0.66-0.25,1.03-0.74,1.03-1.4c0-0.91-0.52-1.53-1.47-1.76
	c-0.71-0.16-1.54-0.3-2.47-0.38c-0.87-0.1-1.74-0.27-2.58-0.52c-0.73-0.23-1.25-0.69-1.62-1.47c0,0-0.06-0.11-0.08-0.53
	c-0.03-0.42-0.05-0.89-0.11-1.42c-0.04-0.51-0.06-1.02-0.06-1.55v-3c0-2.05,0.02-4.06,0.06-6.06c0.06-2.01,0.08-4.03,0.08-6.08
	c0-0.33,0.12-0.45,0.25-0.54c0.27-0.18,0.59-0.29,0.99-0.35c0.44-0.06,0.89-0.08,1.36-0.06c0.51,0.02,0.92,0.03,1.25,0.03h1.84
	c1.03,0,2.19,0.03,3.44,0.1c1.22,0.07,2.13,0.21,2.74,0.42c0.86,0.23,1.46,0.66,1.84,1.3c0.44,0.75,0.76,1.5,0.97,2.23l0.61,2.15
	c0.34,1.2,1.1,1.38,1.51,1.38c0.65,0,1.01-0.32,1.19-0.59c0.21-0.3,0.36-0.66,0.44-1.08c0.08-0.43,0.1-0.81,0.08-1.16
	c-0.03-0.33-0.04-0.63-0.04-0.89c0-1.03-0.03-2.02-0.1-2.97c-0.07-0.89-0.11-1.84-0.11-2.89c0-0.99,0.03-1.96,0.08-2.9
	c0.04-0.97,0.07-1.95,0.07-2.96c0-0.29-0.04-0.65-0.12-1.05c-0.12-0.81-0.67-1.1-1.15-1.1c-0.95,0-1.42,0.47-1.66,0.87
	c-0.25,0.44-0.45,0.94-0.61,1.56c-0.12,0.53-0.29,1.11-0.49,1.73c-0.17,0.54-0.46,1.01-0.85,1.41c-0.25,0.24-0.64,0.45-1.15,0.6
	c-0.58,0.17-1.24,0.31-2.04,0.43c-0.76,0.1-1.55,0.17-2.42,0.19c-0.85,0.03-1.67,0.04-2.43,0.04h-2.46c-0.51,0-0.99,0.02-1.43,0.04
	l-0.19,0c-0.28,0-0.53-0.04-0.75-0.12c-0.21-0.07-0.37-0.21-0.51-0.43c-0.09-0.14-0.23-0.5-0.23-1.3c0-2.05,0-4.09-0.03-6.14
	c-0.02-2.04-0.03-4.09-0.03-6.13c0-0.89,0.06-1.72,0.17-2.48c0.09-0.62,0.46-1.15,1.11-1.59c0.27-0.16,0.85-0.38,2.06-0.54
	c1.09-0.14,2.03-0.2,2.9-0.2h1.5c0.49,0,1.15,0.02,1.99,0.04c0.83,0.02,1.69,0.06,2.57,0.13c0.88,0.06,1.72,0.15,2.53,0.24
	c0.77,0.09,1.36,0.21,1.78,0.37c0.85,0.31,1.42,0.81,1.75,1.51c0.36,0.8,0.63,1.6,0.78,2.38c0.15,0.87,0.33,1.62,0.52,2.26
	c0.25,0.89,0.9,1.38,1.85,1.38c0.58,0,0.9-0.26,1.08-0.5c0.19-0.26,0.32-0.58,0.38-0.94c0.05-0.3,0.07-0.63,0.07-0.99v-0.88
	c0-0.35,0.01-0.97,0.04-1.82c0.02-0.87,0.02-1.75,0-2.66c-0.03-0.88-0.08-1.71-0.17-2.44C1247.76,47.29,1247.57,46.49,1246.79,46.34
	"/>
<path class="st0" d="M1347.31,32.51c0.15-1.92,0.44-3.48,0.87-4.63c0.29-0.82,0.28-1.72-0.05-2.66c-0.25-0.74-0.91-1.62-2.59-1.62
	c-0.36,0-0.89,0.16-1.34,0.89c-0.25,0.4-0.55,0.84-0.91,1.33c-0.35,0.46-0.77,0.9-1.24,1.32c-0.43,0.38-0.96,0.61-1.59,0.72
	c-0.94,0.12-1.89,0.2-2.84,0.23c-4.11,0.14-7.96,0.07-11.64,0.14c-6.24,0.15-13.57,0.13-20.38-0.05c-3.81-0.09-7.72-0.23-11.62-0.42
	c-0.83-0.05-1.48-0.24-1.93-0.56c-0.49-0.34-0.88-0.7-1.16-1.06c-0.3-0.4-0.57-0.75-0.78-1.07c-0.43-0.6-0.93-0.72-1.28-0.72
	c-0.97,0-1.74,0.26-2.29,0.77c-0.52,0.48-0.9,1.09-1.14,1.79c-0.24,0.67-0.4,1.44-0.46,2.28c-0.06,0.78-0.12,1.52-0.19,2.22
	c-0.31,3.23-0.72,5.76-1.21,7.52c-0.52,1.87-0.78,3.33-0.78,4.47c0,0.88,0.23,1.49,0.69,1.86c0.42,0.34,1,0.51,1.78,0.51
	c0.51,0,0.97-0.44,1.68-1.61c0.57-0.94,1.14-1.95,1.67-3.01c0.58-1.11,1.11-2.17,1.62-3.18c0.6-1.19,0.94-1.66,1.12-1.83
	c1.18-1.13,2.42-1.89,3.69-2.28c1.29-0.39,2.66-0.59,4.04-0.59h5.88c1.5,0,2.89,0.11,4.16,0.33c1.53,0.25,1.69,0.65,1.71,0.73
	c0.06,0.32,0.1,1.05,0.13,1.65c0.03,0.85,0.04,1.42,0.04,1.74v45.82c0,1.73-0.09,3.19-0.27,4.36c-0.17,1.1-0.52,2.02-1.04,2.74
	c-0.5,0.69-1.26,1.25-2.25,1.65c-1.04,0.41-2.46,0.72-4.33,0.92c-0.14,0.04-0.44,0.08-1.09,0.08c-0.69,0-1.36,0.12-2.01,0.37
	c-0.56,0.22-1.22,0.74-1.22,2c0,1.41,0.92,1.67,1.32,1.71c0.56,0.06,1.1,0.1,1.63,0.1c2.27,0,4.56-0.08,6.8-0.24
	c4.52-0.33,9.72-0.29,14.23,0c2.49,0.16,5.04,0.24,7.56,0.24c0.79,0,1.47-0.03,1.98-0.1c0.77-0.11,1.16-0.84,1.16-2.18
	c0-0.61-0.28-1.68-2.17-1.9l-3.75-0.43c-1.32-0.15-2.6-0.51-3.79-1.09c-1.09-0.51-1.76-1.53-2.04-3.12
	c-0.18-0.96-0.29-1.94-0.33-2.95c-0.03-1-0.04-2.01-0.04-2.99c0.13-5.53,0.11-11.14-0.05-16.71c-0.16-5.42-0.17-11.02-0.04-16.63
	l0.18-11.56c0-1.42,0.08-2.48,0.23-3.15c0.17-0.8,0.39-1.11,0.5-1.23c0.16-0.15,0.31-0.22,0.53-0.22c0.83,0.08,1.75,0.07,3.21,0.01
	c1.76-0.07,4.14-0.06,6.51,0.1c1.41,0.1,2.75,0.25,3.97,0.46c1.2,0.22,2.24,0.55,3.1,0.99c0.78,0.41,1.31,0.93,1.57,1.55
	c0.35,0.86,0.49,1.8,0.43,2.77c-0.05,1.07-0.14,2.05-0.23,2.97c-0.1,0.99-0.09,1.79,0.06,2.45c0.1,0.51,0.49,1.36,1.89,1.36
	c0.84,0,1.98-0.44,2.59-2.51c0.41-1.39,0.74-3.08,0.97-5.02C1346.96,36.45,1347.15,34.48,1347.31,32.51"/>
<path class="st0" d="M1417.44,93.17c-0.78-0.23-1.7-0.44-2.7-0.63c-0.98-0.18-1.99-0.45-3-0.83c-0.89-0.32-1.57-1-2.08-2.07
	c-3.21-6.67-6.3-13.44-9.17-20.15c-2.86-6.62-5.66-13.5-8.33-20.44c-1.45-3.6-2.94-7.26-4.46-10.99c-1.51-3.72-2.99-7.38-4.45-10.99
	c-0.14-0.34-0.35-0.71-0.63-1.12c-0.37-0.49-0.89-0.75-1.51-0.75c-0.7,0-1.2,0.19-1.47,0.58c-0.2,0.28-0.37,0.64-0.49,1.01
	c-2.34,5.76-4.67,11.46-7.01,17.14c-2.33,5.68-4.66,11.4-7,17.15l-4.12,10.07c-1.36,3.32-2.7,6.68-4.03,10.08
	c-0.18,0.44-0.46,1.13-0.8,2.05c-0.35,0.91-0.72,1.83-1.13,2.77l-1.18,2.69c-0.44,1.01-0.67,1.39-0.82,1.58
	c-0.48,0.76-1.06,1.25-1.72,1.46c-0.76,0.24-1.5,0.43-2.19,0.55c-0.78,0.14-1.45,0.34-2.02,0.62c-0.48,0.25-1.07,0.82-1.07,2.13
	c0,0.5,0.15,0.97,0.44,1.37c0.23,0.33,0.67,0.73,1.46,0.73c1.44,0,2.79-0.08,4.01-0.26c2.84-0.37,6.49-0.27,9.95,0.11
	c2.13,0.22,4.22,0.33,6.22,0.33c0.65,0,1.23-0.23,1.72-0.67c0.48-0.45,0.75-1.04,0.75-1.7c0-1.22-0.7-2.05-1.97-2.32
	c-0.99-0.22-2.11-0.39-3.43-0.53c-1.17-0.12-2.26-0.37-3.21-0.72c-0.49-0.19-1.14-0.6-1.14-2.02c0-0.11,0.06-0.58,0.59-2.49
	c0.41-1.46,0.97-3.26,1.65-5.38c0.69-2.12,1.53-4.51,2.5-7.12c0.92-2.46,1.94-5.02,3.05-7.61c0.73-0.14,1.64-0.25,2.69-0.3
	c2.5-0.13,5.13-0.11,7.53-0.04c1.24,0.02,2.24,0.04,2.99,0.04h1.81c0.99,0,2.03,0.04,3.06,0.13c0.87,0.09,1.52,0.34,1.92,0.74
	c0.03,0.02,0.13,0.15,0.4,0.77c0.23,0.52,0.5,1.1,0.81,1.7c0.94,2.27,1.85,4.49,2.74,6.62c0.88,2.14,1.67,4.1,2.36,5.86l1.8,4.59
	c0.49,1.25,0.83,2.2,1.03,2.85l0.18,0.6c0.06,0.18,0.07,0.33,0.07,0.46c0,1.04-0.48,1.31-0.9,1.43c-0.84,0.24-1.77,0.39-2.86,0.45
	c-1.11,0.06-2.13,0.15-3.03,0.28c-1.58,0.22-1.83,1.23-1.83,1.8c0,0.74,0.31,1.38,0.87,1.86c0.55,0.47,1.18,0.71,1.9,0.71
	c2.23,0,4.45-0.1,6.63-0.28c3.63-0.32,7.31-0.47,11,0c1.52,0.18,3.08,0.28,4.62,0.28h1.04c0.68,0,1.4-0.12,2.13-0.37
	c1.2-0.4,1.38-1.26,1.38-1.73C1418.99,94.22,1418.44,93.47,1417.44,93.17 M1386.78,61.18c-0.12,0.03-0.21,0.06-0.29,0.11
	c-3.89,0-6.89,0.01-9.04,0.05c-2.17,0.03-3.8,0.05-4.86,0.05h-1.69l2.78-6.68c0.83-1.95,1.56-3.72,2.19-5.31
	c0.63-1.57,1.26-3.1,1.89-4.57c0.5-1.19,1.09-2.55,1.75-4.08c0.14,0.36,0.32,0.82,0.53,1.43c0.54,1.52,1.18,3.36,1.94,5.54
	c0.77,2.18,1.58,4.51,2.47,7.01C1385.25,56.99,1386.03,59.15,1386.78,61.18"/>
<path class="st0" d="M1495.14,97.7c-0.67-0.14-1.35-0.37-2.13-0.71c-2.54-0.54-4.8-1.7-6.74-3.42c-1.98-1.75-3.79-3.83-5.4-6.19
	c-1.61-2.35-3.09-4.89-4.41-7.55c-1.32-2.68-2.57-5.21-3.74-7.61c-1.2-2.48-2.36-4.53-3.54-6.29c-0.93-1.36-1.86-2.35-2.84-3
	c1.31-0.66,2.64-1.42,3.99-2.29c1.69-1.08,3.26-2.35,4.65-3.77c1.4-1.43,2.55-3.05,3.43-4.84c0.88-1.82,1.33-3.8,1.33-5.89
	c0-3.81-0.73-6.99-2.17-9.48c-1.42-2.47-3.23-4.45-5.38-5.92c-2.12-1.45-4.45-2.47-6.92-3.02c-2.42-0.54-4.73-0.83-6.85-0.83
	c-2.45,0-4.89,0.05-7.26,0.14c-2.35,0.09-4.79,0.14-7.23,0.14h-8.23c-0.67,0-1.37-0.03-2.08-0.09c-1.53-0.13-3.01-0.17-4.35,0.15
	c-0.54,0.12-1.44,0.57-1.44,2.13c0,0.8,0.41,1.41,1.14,1.68c0.55,0.21,1.26,0.34,2.09,0.41c0.79,0.06,1.62,0.12,2.51,0.19
	c0.83,0.05,1.63,0.22,2.36,0.48c0.69,0.25,1.23,0.66,1.66,1.26c0.44,0.59,0.66,1.46,0.66,2.59c0,5.28-0.05,10.65-0.14,15.99
	c-0.1,5.35-0.15,10.73-0.15,16.01v19.5c0,1.2-0.22,2.14-0.66,2.8c-0.45,0.68-1.04,1.22-1.74,1.61c-0.74,0.41-1.52,0.69-2.33,0.83
	c-0.88,0.17-1.71,0.31-2.5,0.43c-0.8,0.13-1.48,0.28-2.02,0.45c-1.01,0.32-1.17,1.05-1.17,1.44c0,1.13,0.21,1.77,0.65,2.05
	c0.37,0.23,0.95,0.33,1.92,0.33c1.96,0,3.93-0.1,5.89-0.29c4.02-0.4,8.28-0.36,12.43,0.05c2.22,0.22,4.53,0.33,6.87,0.33
	c1.34,0,2.32-0.1,3.01-0.31c0.51-0.15,1.36-0.64,1.36-2.17c0-0.75-0.4-1.31-1.08-1.49c-0.48-0.15-1.02-0.22-1.59-0.22
	c-0.38,0-0.5-0.04-0.5-0.04l-0.14-0.05c-1.29-0.25-2.43-0.44-3.45-0.57c-0.94-0.12-1.75-0.35-2.41-0.7
	c-0.62-0.32-1.09-0.83-1.44-1.53c-0.38-0.75-0.56-1.9-0.56-3.44V67.55c0-1.84,0.21-2.51,0.34-2.74c0.08-0.14,0.42-0.47,1.82-0.47
	c2.14,0,3.95,0.53,5.39,1.59c1.49,1.1,2.81,2.5,3.93,4.17c1.12,1.68,2.17,3.6,3.07,5.73c0.91,2.14,1.93,4.25,2.98,6.23
	c1.92,4.98,4.75,9.26,8.43,12.71c3.69,3.47,8.33,5.71,13.81,6.68c0.44,0.07,0.99,0.12,1.63,0.19c0.65,0.06,1.3,0.11,1.95,0.11
	c1.65,0,2.83-0.14,3.6-0.42l0.22-0.14c0.7-0.7,1.03-1.29,1.03-1.83C1496.7,98.87,1496.49,97.99,1495.14,97.7 M1467.6,53.05
	c-0.86,1.83-2.07,3.29-3.58,4.32c-1.54,1.06-3.4,1.79-5.51,2.18c-2.17,0.4-4.52,0.6-6.99,0.6c-1.07,0-1.85-0.08-2.32-0.25
	c-0.49-0.17-0.63-0.42-0.69-0.6c-0.14-0.35-0.19-0.83-0.16-1.43c0.03-0.67,0.05-1.49,0.05-2.44c0-2.52,0.03-5.36,0.1-8.51
	c0.05-3.16,0.09-6.01,0.09-8.54v-3.22c0-1.36,0.31-2.4,0.9-3.07c0.39-0.45,1.39-0.99,3.92-0.99c2.26,0,4.36,0.33,6.25,0.96
	c1.86,0.64,3.5,1.58,4.86,2.81c1.36,1.25,2.45,2.79,3.23,4.59c0.78,1.83,1.18,3.98,1.18,6.4
	C1468.93,48.79,1468.48,51.2,1467.6,53.05"/>
<path class="st0" d="M1557.99,23.6c-0.37,0-0.9,0.15-1.35,0.89c-0.24,0.4-0.54,0.85-0.92,1.34c-0.34,0.45-0.75,0.9-1.24,1.33
	c-0.41,0.37-0.95,0.6-1.59,0.71c-0.92,0.12-1.88,0.2-2.82,0.23c-4.12,0.13-7.95,0.06-11.64,0.14c-6.24,0.14-13.57,0.12-20.38-0.05
	c-3.81-0.09-7.73-0.23-11.63-0.43c-0.83-0.05-1.47-0.24-1.93-0.56c-0.48-0.34-0.87-0.7-1.15-1.06c-0.31-0.4-0.57-0.75-0.79-1.07
	c-0.42-0.6-0.92-0.71-1.27-0.71c-0.98,0-1.75,0.25-2.3,0.77c-0.51,0.48-0.89,1.08-1.14,1.79c-0.24,0.67-0.39,1.44-0.45,2.27
	l-0.2,2.22c-0.31,3.22-0.72,5.76-1.21,7.52c-0.52,1.86-0.78,3.33-0.78,4.46c0,0.88,0.23,1.5,0.7,1.87c0.42,0.34,1,0.51,1.78,0.51
	c0.5,0,0.96-0.44,1.68-1.61c0.57-0.96,1.13-1.98,1.67-3.02c0.52-1,1.01-1.97,1.47-2.89l0.14-0.29c0.6-1.18,0.94-1.65,1.12-1.83
	c1.18-1.13,2.43-1.89,3.69-2.28c1.29-0.4,2.66-0.59,4.05-0.59h5.87c1.5,0,2.9,0.11,4.16,0.32c1.19,0.2,1.66,0.51,1.71,0.72
	c0.06,0.27,0.1,0.81,0.13,1.65c0.03,0.85,0.05,1.42,0.05,1.74v45.82c0,1.73-0.1,3.2-0.28,4.35c-0.17,1.11-0.52,2.04-1.03,2.75
	c-0.5,0.69-1.26,1.24-2.26,1.65c-1.03,0.41-2.46,0.72-4.33,0.91c-0.14,0.04-0.43,0.08-1.08,0.08c-0.69,0-1.37,0.12-2.02,0.37
	c-0.55,0.22-1.21,0.74-1.21,2.01c0,1.4,0.92,1.66,1.32,1.71c0.55,0.07,1.09,0.1,1.62,0.1c2.28,0,4.56-0.08,6.81-0.24
	c4.52-0.32,9.7-0.29,14.22,0.01c2.5,0.16,5.04,0.24,7.57,0.24c0.79,0,1.47-0.04,1.97-0.1c0.77-0.11,1.16-0.84,1.16-2.18
	c0-0.62-0.28-1.68-2.17-1.91l-3.74-0.42c-1.33-0.15-2.61-0.51-3.79-1.09c-1.09-0.51-1.76-1.54-2.05-3.12
	c-0.18-0.98-0.29-1.97-0.32-2.94c-0.03-1-0.05-2.01-0.05-3c0.12-5.59,0.11-11.2-0.04-16.7c-0.17-5.4-0.18-11-0.05-16.63l0.19-11.56
	c0-1.42,0.08-2.48,0.22-3.16c0.18-0.79,0.39-1.1,0.51-1.22c0.14-0.15,0.28-0.22,0.53-0.21c0.83,0.08,1.76,0.07,3.2,0
	c1.76-0.08,4.15-0.07,6.51,0.1c1.42,0.09,2.75,0.25,3.97,0.46c1.21,0.22,2.25,0.55,3.1,0.99c0.79,0.4,1.31,0.92,1.57,1.54
	c0.35,0.86,0.5,1.79,0.44,2.78c-0.06,1.06-0.14,2.05-0.23,2.96c-0.11,0.99-0.09,1.79,0.06,2.45c0.1,0.5,0.49,1.35,1.88,1.35
	c1.23,0,2.1-0.85,2.59-2.5c0.42-1.39,0.75-3.08,0.98-5.02c0.2-1.85,0.39-3.82,0.56-5.85c0.16-1.92,0.45-3.49,0.87-4.63
	c0.3-0.82,0.28-1.71-0.05-2.66C1560.32,24.48,1559.66,23.6,1557.99,23.6"/>
<path class="st0" d="M1646.59,27.23l-0.2-0.03c-1.68,0-3.42,0.05-5.15,0.14c-3.32,0.19-6.68,0.21-10-0.04
	c-1.7-0.13-3.39-0.19-5.02-0.19c-0.56,0-1.09,0.07-1.58,0.21c-0.41,0.12-1.09,0.49-1.09,1.69c0,1.38,0.66,2.04,1.19,2.34
	c0.66,0.38,1.46,0.66,2.37,0.83c0.86,0.16,1.73,0.3,2.63,0.42c0.77,0.11,1.4,0.39,1.87,0.81c0.46,0.41,0.78,1.24,0.95,2.44
	c0.18,1.32,0.28,2.84,0.28,4.51c0,1.69-0.04,3.46-0.1,5.28c-0.06,1.83-0.09,3.48-0.09,4.95v20.26c0,1.82-0.19,3.63-0.56,5.39
	c-0.56,3.15-1.34,5.82-2.32,7.95c-0.98,2.09-2.25,3.83-3.79,5.15c-1.53,1.33-3.42,2.29-5.64,2.86c-2.23,0.59-4.97,0.88-8.13,0.88
	c-2.65,0-5.09-0.28-7.25-0.84c-2.1-0.54-3.95-1.51-5.48-2.9c-1.54-1.39-2.79-3.32-3.73-5.75c-0.95-2.45-1.56-5.65-1.81-9.49
	c-0.12-1.89-0.2-3.8-0.24-5.84c-0.03-1.95-0.04-3.91-0.04-5.86V45.01c0-0.94,0.01-1.95,0.04-3.01c0.04-1.06,0.1-2.09,0.2-3.09
	c0.09-0.99,0.2-1.9,0.32-2.71c0.12-0.78,0.27-1.37,0.43-1.75c0.38-0.85,0.98-1.4,1.86-1.66c1.05-0.31,2.09-0.56,3.11-0.74
	c1.09-0.19,2.08-0.41,2.95-0.68c1.11-0.33,1.69-1.12,1.69-2.25c0-0.99-0.57-1.64-1.62-1.81c-0.8-0.13-1.45-0.2-1.99-0.2
	c-2.2,0-4.4,0.1-6.54,0.29c-3.96,0.35-8.29,0.4-12.39,0c-2-0.19-4.04-0.29-6.06-0.29c-1.58,0-2.47,0.87-2.47,2.38
	c0,0.63,0.26,1.16,0.76,1.51c0.41,0.31,0.91,0.51,1.45,0.63c0.49,0.09,0.99,0.16,1.5,0.2c0.49,0.03,0.89,0.04,1.22,0.04h1.04
	c1.09,0,1.93,0.29,2.47,0.86c0.6,0.64,1.02,1.38,1.28,2.27c0.26,0.91,0.42,1.94,0.45,3.03c0.03,1.13,0.05,2.13,0.05,3.01
	c0,5.39-0.06,10.73-0.19,15.9c-0.13,5.32-0.19,10.68-0.19,15.92v3.51c0,0.58,0.01,1.16,0.05,1.74c0.03,0.58,0.08,1.16,0.14,1.73
	c0.39,3.75,1.35,6.88,2.83,9.33c1.48,2.45,3.43,4.46,5.77,5.96c2.32,1.48,5,2.54,7.96,3.16c2.93,0.61,6.05,0.91,9.3,0.91
	c2.73,0,5.57-0.21,8.42-0.61c2.86-0.42,5.66-1.16,8.37-2.16c3.12-1.24,5.56-3.03,7.26-5.31c1.66-2.25,2.93-4.81,3.77-7.62
	c0.84-2.76,1.34-5.72,1.5-8.8c0.15-3.07,0.24-6.01,0.24-8.74c0-1.7-0.02-3.42-0.05-5.12c-0.04-1.71-0.05-3.41-0.05-5.1
	c0-1.9-0.01-4.11-0.04-6.64c-0.04-2.51-0.04-4.94,0-7.27c0.03-2.31,0.14-4.34,0.32-6.05c0.25-2.26,0.64-2.54,0.68-2.56
	c0.1-0.06,0.48-0.23,1.62-0.39c0.93-0.13,1.92-0.31,2.93-0.53c1.06-0.23,1.99-0.55,2.79-0.94c1.21-0.61,1.46-1.49,1.46-2.13
	C1648.3,28.58,1647.99,27.74,1646.59,27.23"/>
<polygon class="st0" points="443.25,348.28 454.79,348.28 454.79,203.55 443.25,203.55 443.25,348.28 443.25,348.07 "/>
<path class="st0" d="M492.71,348.28h11.13v-80.82c4.4-4.95,9.48-8.93,15.26-11.96c5.64-2.89,10.93-4.33,15.88-4.33
	c3.02,0,5.77,0.48,8.25,1.44c2.47,0.82,4.4,1.99,5.77,3.5c1.65,1.92,2.89,4.19,3.71,6.8c0.82,2.61,1.24,6.32,1.24,11.13v74.22h11.54
	v-79.99c0-2.75-0.34-5.36-1.03-7.83c-0.82-2.47-1.85-4.67-3.09-6.6c-2.06-3.85-5.15-6.87-9.28-9.07c-4.12-2.2-8.93-3.3-14.43-3.3
	c-6.05,0-11.89,1.44-17.52,4.33c-5.77,2.89-11.27,7.08-16.49,12.58c-0.14-4.67-0.62-8.52-1.44-11.54c-0.83-3.02-1.38-4.81-1.65-5.36
	l-11.13,2.89c0.83,1.65,1.65,4.12,2.47,7.42c0.82,3.3,1.24,7.83,1.24,13.61v83.09v-0.21H492.71z"/>
<path class="st0" d="M627.95,350.75c11.41-0.14,20.41-3.16,27.01-9.07c6.6-5.77,9.97-13.61,10.1-23.5c0-7.15-2.13-13.13-6.39-17.94
	c-4.4-4.81-11.34-8.18-20.82-10.1l-13.61-2.89c-5.91-1.24-10.31-3.3-13.2-6.19c-2.89-3.02-4.33-7.01-4.33-11.96
	c0-5.77,1.92-10.45,5.77-14.02c3.85-3.57,9.48-5.43,16.91-5.57c4.67,0,9.14,0.69,13.4,2.06c4.26,1.37,8.32,3.16,12.16,5.36
	l4.54-8.45c-4.12-2.47-8.8-4.4-14.02-5.77c-5.22-1.51-10.65-2.27-16.29-2.27c-10.86,0.14-19.38,2.96-25.57,8.45
	c-6.18,5.5-9.35,12.71-9.48,21.65c0,7.42,2.2,13.47,6.6,18.14c4.4,4.67,10.72,7.83,18.97,9.48l13.2,2.47
	c6.87,1.51,11.82,3.92,14.84,7.22c3.02,3.3,4.54,7.42,4.54,12.37c0,6.46-2.13,11.61-6.39,15.46c-4.4,3.85-10.45,5.77-18.14,5.77
	c-6.05,0-11.82-0.82-17.32-2.47c-5.5-1.65-10.65-3.99-15.46-7.01l-4.54,8.45c4.95,3.16,10.58,5.64,16.91,7.42
	c6.32,1.79,12.85,2.68,19.59,2.68v-0.21L627.95,350.75z"/>
<path class="st0" d="M714.94,351.16c3.3,0,6.32-0.27,9.07-0.82c2.75-0.55,5.22-1.37,7.42-2.47l-1.65-7.42
	c-1.37,0.69-2.96,1.24-4.74,1.65c-1.65,0.41-3.71,0.62-6.19,0.62c-5.22,0-8.93-1.44-11.13-4.33c-2.2-2.89-3.3-7.22-3.3-12.99v-72.99
	h22.68l3.71-8.66h-25.98c0-4.67,0.14-9.07,0.41-13.19c0.27-4.12,0.55-7.63,0.83-10.51c0.27-3.02,0.55-4.95,0.82-5.77l-12.16,2.47
	c-0.27,0.82-0.55,2.68-0.82,5.57c-0.28,3.02-0.55,6.46-0.83,10.31c-0.28,3.85-0.41,7.63-0.41,11.34h-13.61v8.66h13.61v76.08
	c0,4.81,0.69,8.86,2.06,12.16c1.38,3.3,3.44,5.77,6.19,7.42c1.65,1.1,3.57,1.99,5.77,2.68c2.2,0.82,4.74,1.24,7.63,1.24v-0.21
	L714.94,351.16z"/>
<path class="st0" d="M754.1,348.28h11.96V241.07l-11.96,1.86v105.15v-0.21V348.28z M760.29,219.21c2.47,0,4.61-0.89,6.39-2.68
	c1.79-1.65,2.68-3.78,2.68-6.39c0-2.75-0.89-4.95-2.68-6.6c-1.79-1.65-3.92-2.47-6.39-2.47c-2.61,0-4.81,0.89-6.6,2.68
	c-1.79,1.65-2.68,3.78-2.68,6.39c0,2.61,0.89,4.74,2.68,6.39C755.48,218.32,757.68,219.21,760.29,219.21z"/>
<path class="st0" d="M825.42,351.16c3.3,0,6.32-0.27,9.07-0.82c2.75-0.55,5.22-1.37,7.42-2.47l-1.65-7.42
	c-1.37,0.69-2.95,1.24-4.74,1.65c-1.65,0.41-3.71,0.62-6.18,0.62c-5.22,0-8.93-1.44-11.13-4.33c-2.2-2.89-3.3-7.22-3.3-12.99v-72.99
	h22.68l3.71-8.66h-25.98c0-4.67,0.14-9.07,0.41-13.19c0.28-4.12,0.55-7.63,0.83-10.51c0.27-3.02,0.55-4.95,0.82-5.77l-12.16,2.47
	c-0.27,0.82-0.55,2.68-0.82,5.57c-0.28,3.02-0.55,6.46-0.83,10.31c-0.27,3.85-0.41,7.63-0.41,11.34h-13.61v8.66h13.61v76.08
	c0,4.81,0.69,8.86,2.06,12.16c1.38,3.3,3.44,5.77,6.19,7.42c1.65,1.1,3.57,1.99,5.77,2.68c2.2,0.82,4.74,1.24,7.63,1.24v-0.21
	L825.42,351.16z"/>
<path class="st0" d="M934.68,351.58l7.63-7.63c-1.92-2.06-3.3-4.67-4.12-7.83c-0.83-3.3-1.24-8.04-1.24-14.23v-80.41l-11.55,2.06
	v78.55c-3.57,6.05-7.97,10.72-13.2,14.02c-5.22,3.3-10.58,4.95-16.08,4.95c-2.89,0-5.57-0.41-8.04-1.24
	c-2.47-0.83-4.54-1.92-6.18-3.3c-2.2-1.79-3.85-4.05-4.95-6.8c-1.1-2.89-1.65-6.53-1.65-10.93v-77.52l-11.13,2.47v78.35
	c0,3.44,0.41,6.53,1.24,9.28c0.69,2.89,1.72,5.29,3.09,7.22c2.06,3.85,5.15,6.87,9.28,9.07c4.12,2.2,9.21,3.3,15.26,3.3
	c6.87,0,13.2-1.44,18.97-4.33c5.77-2.75,10.72-6.87,14.84-12.37c0.55,4.12,1.51,7.49,2.89,10.1c1.37,2.61,3.3,5.02,5.77,7.22v-0.21
	L934.68,351.58z"/>
<path class="st0" d="M995.9,351.16c3.3,0,6.33-0.27,9.07-0.82c2.75-0.55,5.23-1.37,7.43-2.47l-1.65-7.42
	c-1.38,0.69-2.96,1.24-4.74,1.65c-1.65,0.41-3.72,0.62-6.19,0.62c-5.22,0-8.93-1.44-11.13-4.33c-2.2-2.89-3.3-7.22-3.3-12.99v-72.99
	h22.68l3.71-8.66H985.8c0-4.67,0.14-9.07,0.41-13.19c0.27-4.12,0.55-7.63,0.83-10.51c0.27-3.02,0.55-4.95,0.82-5.77l-12.16,2.47
	c-0.27,0.82-0.55,2.68-0.82,5.57c-0.28,3.02-0.55,6.46-0.83,10.31c-0.28,3.85-0.41,7.63-0.41,11.34h-13.61v8.66h13.61v76.08
	c0,4.81,0.69,8.86,2.06,12.16c1.37,3.3,3.44,5.77,6.18,7.42c1.65,1.1,3.57,1.99,5.77,2.68c2.2,0.82,4.74,1.24,7.63,1.24v-0.21
	L995.9,351.16z"/>
<path class="st0" d="M1041.66,287.25c0.69-12.51,3.57-21.85,8.66-28.04c5.22-6.32,11.82-9.48,19.79-9.48
	c4.95,0,9.21,0.96,12.79,2.89c3.57,2.06,6.39,4.74,8.45,8.04c1.65,2.75,2.95,6.25,3.92,10.51c0.96,4.12,1.44,9.35,1.44,15.67h-55.26
	v-0.21L1041.66,287.25z M1073.41,350.34c6.74,0,12.85-1.03,18.35-3.09c5.64-1.92,10.65-4.81,15.05-8.66l-4.53-7.42
	c-3.58,3.3-7.56,5.77-11.96,7.42c-4.4,1.51-9.21,2.27-14.43,2.27c-5.91,0-11.21-1.1-15.88-3.3c-4.67-2.2-8.45-5.43-11.34-9.69
	c-1.92-3.02-3.5-6.73-4.74-11.13c-1.24-4.4-1.93-9.42-2.06-15.05v-5.36h67.62v-2.47c0-7.7-0.41-14.16-1.24-19.38
	c-0.82-5.22-2.13-9.62-3.91-13.2c-1.79-3.57-4.06-6.73-6.81-9.48c-3.16-3.16-6.94-5.7-11.34-7.63c-4.39-1.93-9.41-2.89-15.05-2.89
	c-6.32,0-11.95,1.24-16.9,3.71c-4.95,2.47-9.21,5.84-12.79,10.1c-4.12,4.95-7.21,10.65-9.27,17.11c-2.06,6.32-3.1,13.95-3.1,22.89
	c0,11.13,1.72,20.82,5.16,29.07c3.44,8.25,8.45,14.71,15.05,19.38c6.6,4.67,14.71,7.01,24.33,7.01L1073.41,350.34z"/>
<path class="st0" d="M1222.45,341.27c-5.77-0.14-10.72-1.44-14.85-3.92c-4.12-2.47-7.21-5.36-9.27-8.66
	c-2.2-3.57-3.92-8.39-5.16-14.43c-1.37-6.05-2.06-12.85-2.06-20.41c0-6.6,0.55-12.44,1.65-17.52c1.1-5.08,2.61-9.42,4.54-12.99
	c1.92-3.57,4.94-6.6,9.07-9.07c4.12-2.47,9.07-3.78,14.84-3.92c5.77,0,10.86,1.31,15.26,3.92c4.4,2.61,7.69,6.05,9.89,10.31
	c1.93,3.85,3.44,8.52,4.54,14.02c1.1,5.5,1.65,11.96,1.65,19.38c0,6.05-0.41,11.13-1.24,15.26c-0.82,4.12-2.2,8.25-4.12,12.37
	c-1.93,4.67-4.95,8.52-9.07,11.55c-4.13,3.02-9.35,4.54-15.67,4.54V341.27z M1222.45,350.75c8.24,0,15.32-1.79,21.23-5.36
	c6.05-3.57,10.72-8.25,14.02-14.02c2.48-4.4,4.4-9.48,5.78-15.26c1.37-5.64,2.06-12.03,2.06-19.17c0-8.25-0.83-15.53-2.48-21.85
	c-1.65-6.32-3.98-11.82-7.01-16.49c-3.02-4.81-7.35-9-12.98-12.58c-5.64-3.57-12.79-5.43-21.45-5.57
	c-7.42,0.14-13.88,1.58-19.38,4.33c-5.49,2.89-9.89,6.53-13.19,10.93c-3.58,4.67-6.32,10.31-8.25,16.91
	c-1.92,6.6-2.88,14.02-2.88,22.27c0,7.97,0.82,15.12,2.47,21.44c1.65,6.32,4.05,11.82,7.22,16.49c3.29,5.09,7.76,9.28,13.4,12.58
	c5.63,3.3,12.5,5.02,20.61,5.15L1222.45,350.75z"/>
<path class="st0" d="M1296.24,348.28h11.96v-96.49h24.33l3.3-8.66H1308v-19.38c0-6.05,1.3-10.72,3.91-14.02
	c2.62-3.3,6.4-4.95,11.34-4.95c2.75,0,5.43,0.41,8.04,1.24c2.48,0.82,4.75,1.92,6.81,3.3l4.53-8.25c-2.75-1.79-5.84-3.09-9.27-3.92
	c-3.44-0.96-7.08-1.44-10.93-1.44c-3.58,0-6.74,0.55-9.49,1.65c-2.74,0.96-5.22,2.34-7.42,4.12c-2.06,1.51-4.05,4.06-5.98,7.63
	c-1.92,3.44-2.95,8.38-3.09,14.84v19.79h-10.1v8.66h10.1v96.49v-0.21L1296.24,348.28z"/>
<path class="st0" d="M1489.2,338.79l-6.6-8.25c-4.67,3.3-9.35,5.77-14.02,7.42c-4.67,1.65-9.76,2.47-15.26,2.47
	c-8.24,0-15.67-1.99-22.26-5.98c-6.74-3.99-12.24-10.24-16.5-18.76c-2.33-4.67-4.19-10.1-5.56-16.29
	c-1.38-6.32-2.07-13.61-2.07-21.85c0-9.07,0.69-17.18,2.07-24.33c1.37-7.15,3.29-13.33,5.77-18.56c3.71-7.7,8.66-13.54,14.84-17.52
	c6.05-4.12,13.2-6.18,21.44-6.18c5.5,0,10.59,0.69,15.26,2.06c4.54,1.51,9,3.92,13.4,7.22l6.39-7.84
	c-4.94-3.85-10.31-6.74-16.08-8.66s-12.02-2.89-18.76-2.89c-9.35,0-17.8,2.2-25.36,6.6c-7.7,4.4-14.09,10.58-19.17,18.56
	c-4.13,6.32-7.29,13.74-9.49,22.27s-3.29,17.73-3.29,27.63c0,10.86,1.3,20.96,3.91,30.31c2.48,9.35,6.46,17.32,11.96,23.92
	c5.77,7.01,12.1,12.03,18.97,15.05c6.87,3.16,14.29,4.74,22.26,4.74c6.74,0,13.27-1.03,19.59-3.09c6.32-1.92,12.23-4.81,17.73-8.66
	v-0.21L1489.2,338.79z"/>
<path class="st0" d="M1549.18,341.27c-5.77-0.14-10.72-1.44-14.84-3.92c-4.13-2.47-7.22-5.36-9.28-8.66
	c-2.2-3.57-3.92-8.39-5.16-14.43c-1.37-6.05-2.06-12.85-2.06-20.41c0-6.6,0.55-12.44,1.65-17.52c1.1-5.08,2.61-9.42,4.54-12.99
	c1.92-3.57,4.94-6.6,9.07-9.07c4.12-2.47,9.07-3.78,14.84-3.92c5.78,0,10.86,1.31,15.26,3.92c4.4,2.61,7.7,6.05,9.9,10.31
	c1.92,3.85,3.43,8.52,4.53,14.02c1.1,5.5,1.65,11.96,1.65,19.38c0,6.05-0.41,11.13-1.24,15.26c-0.82,4.12-2.2,8.25-4.12,12.37
	c-1.92,4.67-4.95,8.52-9.07,11.55c-4.13,3.02-9.35,4.54-15.67,4.54V341.27z M1549.18,350.75c8.25,0,15.32-1.79,21.23-5.36
	c6.05-3.57,10.73-8.25,14.02-14.02c2.48-4.4,4.4-9.48,5.78-15.26c1.37-5.64,2.06-12.03,2.06-19.17c0-8.25-0.83-15.53-2.48-21.85
	c-1.64-6.32-3.98-11.82-7-16.49c-3.03-4.81-7.36-9-12.99-12.58c-5.64-3.57-12.79-5.43-21.45-5.57c-7.42,0.14-13.88,1.58-19.38,4.33
	c-5.49,2.89-9.89,6.53-13.19,10.93c-3.57,4.67-6.32,10.31-8.25,16.91c-1.92,6.6-2.88,14.02-2.88,22.27c0,7.97,0.82,15.12,2.47,21.44
	c1.65,6.32,4.06,11.82,7.22,16.49c3.3,5.09,7.76,9.28,13.4,12.58c5.63,3.3,12.51,5.02,20.61,5.15L1549.18,350.75z"/>
<path class="st0" d="M1622.56,348.28h10.93v-80.82c4.95-5.5,9.76-9.48,14.43-11.96c4.68-2.61,9.21-3.92,13.61-3.92
	c3.16,0,5.84,0.41,8.04,1.24c2.2,0.82,3.99,2.06,5.36,3.71c1.38,1.65,2.41,3.71,3.09,6.18c0.55,2.47,0.83,5.36,0.83,8.66v76.9h11.54
	v-79.17c4.95-5.77,9.76-10.24,14.44-13.4c4.81-3.02,9.69-4.54,14.63-4.54c5.91,0,10.24,1.65,12.99,4.95
	c2.75,3.3,4.13,7.83,4.13,13.61v78.35h11.95V268.9c0-8.52-2.33-15.26-7.01-20.2c-4.53-5.09-10.85-7.7-18.96-7.83
	c-5.78,0-11.55,1.65-17.32,4.95c-5.77,3.3-10.93,7.7-15.46,13.19c-1.65-5.5-4.68-9.9-9.08-13.19c-4.26-3.3-9.55-4.95-15.87-4.95
	c-5.91,0.14-11.62,1.85-17.11,5.15c-5.64,3.3-10.24,7.15-13.82,11.55c-0.13-4.26-0.62-7.9-1.44-10.93c-0.82-2.89-1.37-4.6-1.65-5.15
	l-11.13,2.47c0.27,0.55,0.82,2.47,1.65,5.77c0.82,3.3,1.3,8.39,1.44,15.26v83.29v-0.21L1622.56,348.28z"/>
<path class="st0" d="M1823.77,341.27c-4.81,0-9.62-1.24-14.43-3.71c-4.67-2.47-8.93-6.12-12.78-10.93v-59.38
	c4.12-5.22,8.66-9.14,13.61-11.75c4.94-2.61,10.17-3.92,15.67-3.92c4.39,0,8.52,0.96,12.37,2.89c3.84,2.06,6.94,4.95,9.27,8.66
	c2.2,3.57,3.85,8.25,4.95,14.02c1.1,5.77,1.65,12.23,1.65,19.38c0,6.6-0.55,12.37-1.65,17.32c-1.1,4.95-2.47,9.07-4.12,12.37
	c-2.48,4.53-5.91,8.11-10.31,10.72c-4.4,2.47-9.35,3.71-14.84,3.71v-0.21L1823.77,341.27z M1785.01,391.78l11.55-2.47v-51.95
	c3.57,4.12,7.97,7.28,13.19,9.48c5.23,2.2,10.59,3.3,16.09,3.3c6.87,0,13.05-1.65,18.55-4.95c5.5-3.3,10.17-7.97,14.02-14.02
	c2.75-4.26,4.81-9.28,6.19-15.05c1.37-5.77,2.06-12.85,2.06-21.23c0-9.35-0.96-17.32-2.89-23.92c-1.92-6.73-4.81-12.44-8.66-17.11
	c-3.43-4.26-7.56-7.49-12.37-9.69c-4.81-2.2-9.89-3.3-15.25-3.3c-6.05,0-11.76,1.37-17.12,4.12c-5.22,2.75-9.89,6.67-14.02,11.75
	c0-5.09-0.13-8.87-0.41-11.34c-0.27-2.47-0.55-3.92-0.82-4.33l-11.76,2.06c0.28,0.55,0.69,2.47,1.24,5.77
	c0.55,3.3,0.83,8.52,0.83,15.67v127.41L1785.01,391.78z"/>
<path class="st0" d="M1967.26,351.58l7.63-7.63c-1.93-2.06-3.3-4.67-4.13-7.83c-0.82-3.3-1.24-8.04-1.24-14.23v-80.41l-11.54,2.06
	v78.55c-3.57,6.05-7.97,10.72-13.2,14.02c-5.22,3.3-10.58,4.95-16.08,4.95c-2.88,0-5.56-0.41-8.04-1.24
	c-2.47-0.83-4.53-1.92-6.18-3.3c-2.2-1.79-3.85-4.05-4.95-6.8c-1.1-2.89-1.65-6.53-1.65-10.93v-77.52l-11.13,2.47v78.35
	c0,3.44,0.41,6.53,1.23,9.28c0.69,2.89,1.72,5.29,3.1,7.22c2.06,3.85,5.15,6.87,9.27,9.07c4.13,2.2,9.21,3.3,15.26,3.3
	c6.87,0,13.2-1.44,18.97-4.33c5.77-2.75,10.72-6.87,14.84-12.37c0.55,4.12,1.51,7.49,2.89,10.1c1.37,2.61,3.3,5.02,5.77,7.22v-0.21
	L1967.26,351.58z"/>
<path class="st0" d="M2028.48,351.16c3.3,0,6.32-0.27,9.07-0.82c2.75-0.55,5.22-1.37,7.42-2.47l-1.65-7.42
	c-1.37,0.69-2.95,1.24-4.74,1.65c-1.65,0.41-3.71,0.62-6.19,0.62c-5.22,0-8.93-1.44-11.13-4.33c-2.2-2.89-3.3-7.22-3.3-12.99v-72.99
	h22.68l3.71-8.66h-25.98c0-4.67,0.14-9.07,0.42-13.19c0.27-4.12,0.55-7.63,0.82-10.51c0.28-3.02,0.55-4.95,0.83-5.77l-12.17,2.47
	c-0.27,0.82-0.55,2.68-0.82,5.57c-0.28,3.02-0.55,6.46-0.83,10.31c-0.27,3.85-0.41,7.63-0.41,11.34h-13.61v8.66h13.61v76.08
	c0,4.81,0.69,8.86,2.06,12.16c1.38,3.3,3.44,5.77,6.19,7.42c1.65,1.1,3.57,1.99,5.77,2.68c2.2,0.82,4.74,1.24,7.63,1.24v-0.21
	L2028.48,351.16z"/>
<path class="st0" d="M2074.23,287.25c0.69-12.51,3.58-21.85,8.66-28.04c5.23-6.32,11.82-9.48,19.8-9.48c4.94,0,9.21,0.96,12.78,2.89
	c3.57,2.06,6.39,4.74,8.45,8.04c1.65,2.75,2.96,6.25,3.92,10.51c0.96,4.12,1.44,9.35,1.44,15.67h-55.25v-0.21L2074.23,287.25z
	 M2105.98,350.34c6.74,0,12.86-1.03,18.35-3.09c5.64-1.92,10.66-4.81,15.05-8.66l-4.53-7.42c-3.57,3.3-7.56,5.77-11.96,7.42
	c-4.4,1.51-9.21,2.27-14.43,2.27c-5.91,0-11.2-1.1-15.88-3.3c-4.67-2.2-8.45-5.43-11.34-9.69c-1.92-3.02-3.5-6.73-4.74-11.13
	c-1.23-4.4-1.92-9.42-2.06-15.05v-5.36h67.62v-2.47c0-7.7-0.41-14.16-1.23-19.38c-0.83-5.22-2.13-9.62-3.92-13.2
	c-1.79-3.57-4.05-6.73-6.8-9.48c-3.16-3.16-6.94-5.7-11.34-7.63c-4.4-1.93-9.42-2.89-15.05-2.89c-6.33,0-11.96,1.24-16.91,3.71
	c-4.95,2.47-9.21,5.84-12.78,10.1c-4.13,4.95-7.22,10.65-9.28,17.11c-2.06,6.32-3.09,13.95-3.09,22.89
	c0,11.13,1.72,20.82,5.15,29.07c3.44,8.25,8.46,14.71,15.05,19.38c6.6,4.67,14.71,7.01,24.33,7.01L2105.98,350.34z"/>
<path class="st0" d="M2170.3,348.28h11.54V278.8c0-4.12,0.55-7.42,1.65-9.9c1.1-2.47,3.03-5.02,5.78-7.63
	c2.74-2.75,5.63-4.81,8.65-6.18c3.03-1.38,6.19-2.06,9.49-2.06c0.82,0,1.65,0.07,2.47,0.21c0.83,0.27,1.51,0.55,2.06,0.82
	l4.54-12.37c-0.27-0.14-0.96-0.34-2.06-0.62c-1.1-0.27-2.34-0.41-3.71-0.41c-2.89,0-5.84,0.55-8.87,1.65
	c-3.02,1.1-6.05,2.82-9.07,5.15c-2.2,1.65-4.26,3.44-6.18,5.36c-1.93,2.06-3.58,4.19-4.95,6.39c0-5.36-0.42-9.55-1.24-12.58
	c-0.82-3.02-1.44-4.81-1.86-5.36l-11.54,2.89c0.41,0.55,1.03,2.47,1.85,5.77c0.83,3.3,1.24,8.38,1.24,15.26v82.88v-0.21
	L2170.3,348.28z"/>
<path class="st0" d="M2270.88,338.18c6.6,4.26,13.47,7.35,20.62,9.28c7.15,2.06,14.85,3.09,23.09,3.09c6.33,0,12.1-0.69,17.32-2.06
	c5.22-1.37,9.9-3.51,14.02-6.39c5.64-3.85,9.97-8.66,12.99-14.43c3.02-5.77,4.54-12.1,4.54-18.97c0-4.95-0.83-9.62-2.48-14.02
	c-1.65-4.4-3.92-8.25-6.8-11.55c-3.03-3.3-6.46-6.05-10.31-8.25c-3.99-2.2-8.66-4.12-14.02-5.77l-15.67-4.95
	c-4.4-1.37-8.25-2.89-11.55-4.54c-3.29-1.65-5.97-3.44-8.04-5.36c-2.2-2.2-3.71-4.81-4.53-7.83c-0.96-3.02-1.44-6.25-1.44-9.69
	c0.13-8.38,3.09-14.91,8.86-19.59c5.77-4.54,13.33-6.8,22.68-6.8c6.32,0,12.09,0.89,17.32,2.68c5.22,1.79,10.79,4.6,16.7,8.45
	l5.36-8.66c-5.77-4.12-11.96-7.29-18.56-9.48c-6.59-2.2-13.67-3.3-21.23-3.3c-8.52,0-16.08,1.58-22.68,4.74
	c-6.6,3.16-11.82,7.63-15.67,13.4c-3.85,5.77-5.77,12.64-5.77,20.62c0,4.67,0.68,9,2.06,12.99c1.37,4.12,3.57,7.83,6.6,11.13
	c2.61,2.75,5.84,5.09,9.69,7.01c3.84,1.92,8.59,3.78,14.22,5.57l14.64,4.54c3.85,1.1,7.42,2.54,10.72,4.33
	c3.3,1.65,6.19,3.71,8.66,6.18c2.47,2.34,4.33,5.15,5.57,8.45c1.23,3.3,1.85,7.01,1.85,11.13c0,4.95-0.89,9.42-2.68,13.4
	c-1.92,3.85-4.67,7.15-8.25,9.9c-3.29,2.47-6.87,4.26-10.72,5.36c-3.84,1.1-8.52,1.65-14.02,1.65c-7.28,0-14.02-0.96-20.2-2.89
	c-6.19-1.92-12.16-4.95-17.94-9.07l-5.36,9.48v-0.21L2270.88,338.18z"/>
<path class="st0" d="M2426.94,350.34c6.05,0,11.55-1.1,16.5-3.3c4.95-2.2,9.62-5.64,14.02-10.31l-6.39-7.42
	c-3.3,3.85-7.01,6.73-11.14,8.66c-4.12,1.92-8.45,2.89-12.99,2.89c-6.87,0-12.57-1.79-17.11-5.36c-4.4-3.57-7.7-8.52-9.9-14.84
	c-2.19-6.32-3.29-13.61-3.29-21.85c0-8.66,0.75-16.01,2.26-22.06c1.38-6.05,3.44-11,6.19-14.85c2.47-3.71,5.63-6.53,9.48-8.45
	c3.85-1.92,7.98-2.89,12.37-2.89c4.4,0,8.25,0.69,11.55,2.06c3.3,1.37,6.73,3.64,10.31,6.8l6.18-8.04c-3.3-3.3-7.14-5.98-11.54-8.04
	c-4.4-2.06-9.76-3.09-16.08-3.09c-5.36,0-10.31,0.96-14.85,2.89c-4.53,1.92-8.86,4.88-12.99,8.87c-4.4,4.4-7.97,10.03-10.72,16.91
	c-2.75,6.87-4.12,15.94-4.12,27.22c0,7.97,0.82,14.98,2.47,21.03c1.65,6.05,4.06,11.41,7.22,16.08c3.57,5.22,8.11,9.21,13.61,11.96
	c5.49,2.75,11.88,4.12,19.17,4.12v-0.21L2426.94,350.34z"/>
<path class="st0" d="M2483.22,348.28h11.95V241.07l-11.95,1.86v105.15v-0.21V348.28z M2489.4,219.21c2.47,0,4.61-0.89,6.39-2.68
	c1.79-1.65,2.68-3.78,2.68-6.39c0-2.75-0.89-4.95-2.68-6.6c-1.78-1.65-3.92-2.47-6.39-2.47c-2.61,0-4.81,0.89-6.6,2.68
	c-1.78,1.65-2.68,3.78-2.68,6.39c0,2.61,0.9,4.74,2.68,6.39C2484.59,218.32,2486.79,219.21,2489.4,219.21z"/>
<path class="st0" d="M2538.87,287.25c0.69-12.51,3.57-21.85,8.66-28.04c5.22-6.32,11.82-9.48,19.79-9.48
	c4.95,0,9.21,0.96,12.78,2.89c3.58,2.06,6.39,4.74,8.46,8.04c1.65,2.75,2.95,6.25,3.91,10.51c0.97,4.12,1.45,9.35,1.45,15.67h-55.26
	v-0.21L2538.87,287.25z M2570.62,350.34c6.73,0,12.85-1.03,18.35-3.09c5.63-1.92,10.65-4.81,15.05-8.66l-4.54-7.42
	c-3.57,3.3-7.56,5.77-11.95,7.42c-4.4,1.51-9.21,2.27-14.44,2.27c-5.91,0-11.2-1.1-15.87-3.3c-4.67-2.2-8.45-5.43-11.34-9.69
	c-1.93-3.02-3.51-6.73-4.74-11.13c-1.24-4.4-1.93-9.42-2.06-15.05v-5.36h67.62v-2.47c0-7.7-0.41-14.16-1.24-19.38
	c-0.82-5.22-2.13-9.62-3.91-13.2c-1.79-3.57-4.06-6.73-6.81-9.48c-3.16-3.16-6.94-5.7-11.34-7.63c-4.4-1.93-9.41-2.89-15.05-2.89
	c-6.32,0-11.96,1.24-16.9,3.71c-4.95,2.47-9.21,5.84-12.79,10.1c-4.12,4.95-7.21,10.65-9.27,17.11c-2.07,6.32-3.1,13.95-3.1,22.89
	c0,11.13,1.72,20.82,5.16,29.07c3.43,8.25,8.45,14.71,15.05,19.38c6.6,4.67,14.7,7.01,24.33,7.01L2570.62,350.34z"/>
<path class="st0" d="M2634.93,348.28h11.14v-80.82c4.39-4.95,9.48-8.93,15.25-11.96c5.64-2.89,10.93-4.33,15.88-4.33
	c3.02,0,5.77,0.48,8.24,1.44c2.48,0.82,4.4,1.99,5.78,3.5c1.65,1.92,2.88,4.19,3.71,6.8c0.82,2.61,1.24,6.32,1.24,11.13v74.22h11.54
	v-79.99c0-2.75-0.34-5.36-1.03-7.83c-0.82-2.47-1.86-4.67-3.09-6.6c-2.06-3.85-5.16-6.87-9.28-9.07c-4.12-2.2-8.93-3.3-14.43-3.3
	c-6.05,0-11.89,1.44-17.53,4.33c-5.77,2.89-11.27,7.08-16.49,12.58c-0.14-4.67-0.62-8.52-1.44-11.54c-0.83-3.02-1.38-4.81-1.65-5.36
	l-11.14,2.89c0.83,1.65,1.65,4.12,2.48,7.42c0.82,3.3,1.23,7.83,1.23,13.61v83.09v-0.21H2634.93z"/>
<path class="st0" d="M2779.65,350.34c6.05,0,11.55-1.1,16.5-3.3c4.94-2.2,9.62-5.64,14.02-10.31l-6.4-7.42
	c-3.29,3.85-7.01,6.73-11.13,8.66c-4.12,1.92-8.45,2.89-12.99,2.89c-6.87,0-12.57-1.79-17.11-5.36c-4.4-3.57-7.7-8.52-9.9-14.84
	c-2.2-6.32-3.29-13.61-3.29-21.85c0-8.66,0.75-16.01,2.26-22.06c1.38-6.05,3.44-11,6.19-14.85c2.47-3.71,5.63-6.53,9.48-8.45
	c3.85-1.92,7.97-2.89,12.37-2.89c4.4,0,8.25,0.69,11.55,2.06c3.3,1.37,6.73,3.64,10.31,6.8l6.18-8.04c-3.3-3.3-7.15-5.98-11.54-8.04
	c-4.4-2.06-9.76-3.09-16.09-3.09c-5.36,0-10.3,0.96-14.84,2.89s-8.87,4.88-12.99,8.87c-4.4,4.4-7.97,10.03-10.72,16.91
	c-2.75,6.87-4.12,15.94-4.12,27.22c0,7.97,0.82,14.98,2.47,21.03c1.65,6.05,4.06,11.41,7.22,16.08c3.57,5.22,8.11,9.21,13.6,11.96
	c5.5,2.75,11.89,4.12,19.18,4.12v-0.21L2779.65,350.34z"/>
<path class="st0" d="M2842.52,287.25c0.69-12.51,3.58-21.85,8.66-28.04c5.22-6.32,11.82-9.48,19.79-9.48
	c4.95,0,9.21,0.96,12.79,2.89c3.57,2.06,6.39,4.74,8.45,8.04c1.65,2.75,2.95,6.25,3.92,10.51c0.96,4.12,1.44,9.35,1.44,15.67h-55.25
	v-0.21L2842.52,287.25z M2874.27,350.34c6.74,0,12.85-1.03,18.35-3.09c5.64-1.92,10.65-4.81,15.05-8.66l-4.53-7.42
	c-3.58,3.3-7.56,5.77-11.96,7.42c-4.4,1.51-9.21,2.27-14.43,2.27c-5.91,0-11.21-1.1-15.88-3.3c-4.67-2.2-8.45-5.43-11.34-9.69
	c-1.92-3.02-3.5-6.73-4.74-11.13s-1.92-9.42-2.06-15.05v-5.36h67.62v-2.47c0-7.7-0.41-14.16-1.23-19.38
	c-0.83-5.22-2.14-9.62-3.92-13.2c-1.79-3.57-4.06-6.73-6.81-9.48c-3.16-3.16-6.94-5.7-11.34-7.63c-4.39-1.93-9.41-2.89-15.05-2.89
	c-6.32,0-11.95,1.24-16.9,3.71c-4.95,2.47-9.21,5.84-12.78,10.1c-4.13,4.95-7.22,10.65-9.28,17.11c-2.06,6.32-3.09,13.95-3.09,22.89
	c0,11.13,1.71,20.82,5.15,29.07c3.44,8.25,8.45,14.71,15.05,19.38c6.6,4.67,14.71,7.01,24.33,7.01L2874.27,350.34z"/>
<path class="st0" d="M94.79,412.76c0.06-2.53,0.11-5.07,0.11-7.66c0-0.76,0.01-1.45,0.06-2.04c0.02-0.29,0.1-0.5,0.19-0.64
	c0.04-0.06,0.2-0.23,0.7-0.39c0.34-0.1,1.04-0.24,2.3-0.24c0.77,0,1.47-0.1,2.11-0.27c1.21-0.35,1.92-1.37,1.92-2.74
	c0-0.68-0.32-1.33-0.91-1.92l-0.47-0.5h-6.57c-0.67,0-1.38,0.04-2.1,0.11c-1.91,0.2-3.67,0.1-5.01-0.09
	c-1.08-0.15-2.31-0.23-3.66-0.23h-0.75c-0.44,0-0.92,0.04-1.44,0.13c-1.24,0.18-2.05,1.14-2.05,2.42c0,1.84,1.17,2.53,1.67,2.74
	c0.6,0.25,1.31,0.4,2.11,0.46c0.57,0.03,1.17,0.12,1.79,0.23c0.33,0.04,0.61,0.18,0.69,0.24c0.01,0.02,0.15,0.27,0.29,1.16
	c0.12,0.81,0.18,1.56,0.18,2.24v1.28c0,1.12-0.01,2.22-0.03,3.34c-0.03,1.13-0.03,2.29-0.03,3.44l-0.07,6.23
	c0,0.79-0.06,1.61-0.17,2.46c-0.07,0.65-0.23,0.82-0.29,0.88c-0.25,0.21-0.55,0.36-0.96,0.44c-0.63,0.15-1.25,0.29-1.85,0.39
	c-0.7,0.13-1.3,0.3-1.82,0.48c-1.12,0.38-1.8,1.28-1.8,2.39c0,1.23,0.65,2.22,1.73,2.61c0.61,0.23,1.25,0.34,1.89,0.34h0.94
	c0.73,0,1.36-0.03,1.91-0.08c0.53-0.04,1.02-0.11,1.49-0.18c0.39-0.06,0.81-0.11,1.27-0.15c1.32-0.13,3.37-0.06,5.19,0.13
	c2.05,0.22,4.16,0.3,6.11,0.1c1.5-0.15,2.47-1.23,2.47-2.77c0-1.16-0.75-2.09-1.96-2.39c-0.55-0.17-1.17-0.29-1.87-0.41
	c-0.65-0.11-1.31-0.24-1.99-0.37c-0.41-0.06-0.7-0.2-0.86-0.34c-0.11-0.11-0.28-0.29-0.36-0.7c-0.11-0.58-0.19-1.14-0.23-1.69v-0.88
	C94.69,417.78,94.73,415.26,94.79,412.76"/>
<path class="st0" d="M138.32,401.56c-1.24-1.38-2.79-2.47-4.57-3.26c-2.9-1.29-6.6-1.58-9.86-0.65c-1.21,0.36-2.35,0.79-3.38,1.34
	c-0.31,0.15-0.58,0.31-0.88,0.49c0.71-1.96,1.58-3.85,2.6-5.64c1.8-3.16,4.13-5.99,6.95-8.42c0.65-0.57,1.29-1.08,1.96-1.58
	c0.65-0.47,1.32-0.93,1.94-1.29c0.16-0.08,0.46-0.22,0.88-0.41c0.5-0.22,0.96-0.43,1.41-0.67c0.52-0.29,1-0.59,1.41-0.93
	c0.75-0.61,1.12-1.29,1.12-2.04c0-0.79-0.32-1.49-0.92-2.04c-0.35-0.3-0.67-0.56-0.98-0.74l-0.47-0.26l-0.52,0.04
	c-0.65,0.06-1.37,0.25-2.19,0.59c-0.69,0.27-1.26,0.53-1.79,0.77c-3.21,1.5-6.25,3.39-9.04,5.64c-2.78,2.25-5.27,4.84-7.37,7.68
	c-2.11,2.87-3.78,6.02-4.96,9.37c-1.22,3.37-1.82,6.98-1.82,10.7c0,1.92,0.2,3.82,0.6,5.64c0.42,1.86,1.05,3.63,1.91,5.26
	c0.86,1.66,1.99,3.16,3.35,4.47c1.37,1.33,3.03,2.42,5,3.27c2.36,0.98,4.74,1.48,7.1,1.48c2.44,0,4.7-0.51,6.74-1.52
	c2-0.99,3.71-2.37,5.15-4.05c1.4-1.68,2.5-3.61,3.28-5.72c0.8-2.14,1.17-4.38,1.17-6.67c0-2.12-0.31-4.11-0.95-5.94
	C140.52,404.57,139.56,402.92,138.32,401.56 M128.78,424.02c-0.88,0.62-1.93,0.91-3.26,0.91c-1.57,0-2.8-0.37-3.77-1.1
	c-1.04-0.81-1.87-1.84-2.48-3.07c-0.65-1.35-1.1-2.83-1.38-4.38c-0.27-1.63-0.41-3.2-0.41-4.67c0-0.78,0.03-1.5,0.1-2.19l0.17-1.7
	c0.31-0.34,0.69-0.73,1.12-1.12c0.59-0.56,1.26-1.08,1.97-1.57c0.69-0.46,1.44-0.88,2.23-1.22c2.01-0.84,4.14-0.44,5.57,0.37
	c0.96,0.58,1.73,1.3,2.34,2.21c0.63,0.96,1.12,2.08,1.43,3.33c0.34,1.3,0.49,2.64,0.49,3.98c0,1.26-0.15,2.6-0.44,4
	c-0.27,1.33-0.74,2.57-1.37,3.66C130.49,422.49,129.72,423.35,128.78,424.02"/>
<path class="st0" d="M170.05,417.54c-1.28-1.22-2.86-2.13-4.67-2.74c-0.56-0.18-1.13-0.32-1.73-0.43c0.77-0.78,1.52-1.64,2.24-2.56
	c0.93-1.17,1.76-2.42,2.43-3.7c0.75-1.42,1.13-2.74,1.13-3.98c0-1.64-0.3-3.09-0.93-4.27c-0.62-1.16-1.42-2.12-2.43-2.88
	c-0.98-0.74-2.09-1.27-3.29-1.59c-2.32-0.62-4.83-0.7-7.39,0.34c-1.21,0.48-2.31,1.09-3.32,1.8c-1.03,0.72-1.88,1.5-2.55,2.36
	c-0.81,1.05-1.21,2.1-1.1,3.23c0.1,0.65,0.43,1.22,0.93,1.7c0.55,0.47,1.09,0.57,1.45,0.57c0.54,0,1.04-0.22,1.51-0.69
	c0.97-1.09,1.87-1.98,2.69-2.64c1.11-0.93,3.47-1.12,5.03,0.38c0.74,0.71,1.12,1.9,1.12,3.59c0,0.92-0.28,1.86-0.84,2.85
	c-0.63,1.11-1.43,2.17-2.39,3.17c-0.98,1.02-2.03,1.95-3.15,2.77c-1.14,0.83-2.18,1.51-3.01,1.97l-1.32,0.63
	c-1.59,0.77-1.84,1.92-1.84,2.54c0,1.66,1.08,2.81,2.67,2.81c0.61,0,1.23-0.26,2.11-0.88c0.45-0.29,0.78-0.5,1.14-0.66
	c0.58-0.3,1.11-0.45,1.68-0.45l0.31,0.03c0.93,0.09,1.82,0.21,2.65,0.37c0.89,0.18,1.68,0.53,2.35,1c0.7,0.51,1.28,1.14,1.76,1.87
	c0.49,0.78,0.88,1.65,1.15,2.57c0.29,0.94,0.42,1.88,0.42,2.78c0,1.78-0.37,3.42-1.07,4.85c-0.75,1.46-1.74,2.79-3,3.92
	c-1.29,1.17-2.83,2.19-4.57,3.04c-1.75,0.85-3.61,1.56-5.5,2.11c-0.62,0.08-1.14,0.41-1.47,0.88c-0.27,0.38-0.46,0.85-0.51,1.34
	c-0.08,0.61,0.08,1.19,0.42,1.69c0.25,0.35,0.83,0.94,1.94,0.94h0.03c2.53-0.06,5.16-0.64,7.84-1.75c2.64-1.1,5.1-2.59,7.27-4.43
	c2.21-1.89,4.06-4.08,5.51-6.54c1.48-2.57,2.24-5.3,2.24-8.15c0-1.91-0.36-3.73-0.99-5.4C172.3,420.24,171.32,418.77,170.05,417.54"
	/>
<path class="st0" d="M209.16,416.96c-0.26-0.57-0.78-1.33-1.95-1.78c-1.21-0.48-2.46-0.1-3.3,1.04l-1.92,2.76
	c-0.47,0.67-0.94,1.35-1.45,2.06c-0.51,0.7-0.97,1.35-1.38,1.86c-0.01,0.01-0.3,0.26-1.52,0.51c-1.21,0.25-2.51,0.41-3.92,0.48
	c-1.24,0.06-2.42,0.06-3.55,0c0.39-0.41,0.84-0.88,1.31-1.39c0.92-0.98,1.89-2.08,2.88-3.3c1.03-1.22,1.99-2.46,2.89-3.74
	c0.9-1.28,1.71-2.51,2.38-3.71c0.73-1.28,1.23-2.42,1.47-3.43c1.08-3.87,0.72-7.09-1.07-9.55c-1.8-2.5-4.64-3.75-8.43-3.75
	c-0.71,0-1.4,0.03-2.09,0.08c-0.79,0.06-1.6,0.21-2.42,0.47c-0.83,0.28-1.72,0.72-2.61,1.32c-0.88,0.6-1.78,1.42-2.74,2.47
	c-0.18,0.17-0.41,0.47-0.72,0.87l-0.68,0.96c-0.32,0.44-0.58,0.87-0.79,1.3c-0.25,0.57-0.38,1.04-0.38,1.49
	c0,0.84,0.38,1.58,1.06,2.08c0.74,0.52,1.67,0.61,2.49,0.2c0.58-0.29,1.05-0.8,1.48-1.55c0.19-0.35,0.47-0.73,0.84-1.17
	c0.31-0.35,0.75-0.67,1.33-0.93c0.38-0.2,1.14-0.41,2.55-0.41c2.53,0,3.23,1.05,3.47,1.4c0.63,0.96,0.57,2.42-0.15,4.32
	c-0.48,1.16-1.14,2.47-1.93,3.88c-0.85,1.48-1.8,3.02-2.86,4.58c-1.08,1.57-2.24,3.17-3.48,4.76c-1.25,1.59-2.48,3.07-3.63,4.36
	c-0.68,0.67-0.82,1.38-0.82,1.85c0,0.41,0,1.68,0.97,2.44c0.44,0.36,1,0.55,1.65,0.62l0.48,0.04c0.9,0,1.5-0.59,1.87-1.04
	c1.04,0,2.17-0.03,3.42-0.04c1.45-0.03,2.74-0.03,3.85-0.03c2.77,0.08,5.09,0.28,6.88,0.55c1.92,0.29,3.56,0.5,4.78,0.59l0.27,0.01
	c0.98,0,2.04-0.68,2.18-2.2c0.04-0.47,0.13-1.17,0.25-2.06c0.13-0.86,0.41-1.97,0.81-3.3c0.38-1.28,1.1-2.76,2.13-4.41l0.47-0.75
	L209.16,416.96z"/>
<polygon class="st0" points="13.24,99.13 146.33,35.76 279.4,99.13 "/>
<rect x="6.91" y="111.78" class="st1" width="278.8" height="12.68"/>
<rect x="6.91" y="308.24" class="st1" width="76.06" height="38.03"/>
<rect x="209.69" y="308.24" class="st1" width="76.03" height="38.03"/>
<rect x="108.33" y="308.24" class="st1" width="25.33" height="38.03"/>
<rect x="159" y="308.24" class="st1" width="25.33" height="38.03"/>
<polygon class="st0" points="29.09,137.11 32.26,295.57 6.93,295.57 10.08,137.11 "/>
<polygon class="st0" points="79.81,137.11 82.97,295.57 57.62,295.57 60.78,137.11 "/>
<polygon class="st0" points="130.49,137.11 133.65,295.57 108.3,295.57 111.47,137.11 "/>
<polygon class="st0" points="181.17,137.11 184.33,295.57 159,295.57 162.14,137.11 "/>
<polygon class="st0" points="231.88,137.11 235.04,295.57 209.69,295.57 212.88,137.11 "/>
<polygon class="st0" points="282.56,137.11 285.73,295.57 260.4,295.57 263.54,137.11 "/>
<polygon class="st0" points="146.32,4.08 6.92,70.63 6.92,86.44 146.32,19.91 285.72,86.44 285.72,70.63 "/>
</svg>
